<svg width="21" height="21" viewBox="0 0 21 21" fill="none" xmlns="http://www.w3.org/2000/svg">
<path d="M18.6113 8.0325C18.3575 7.63 18.0863 7.25375 17.8063 6.90375C17.4825 6.4925 16.87 6.4575 16.5025 6.825L13.8775 9.45C14.07 10.0275 14.105 10.6925 13.93 11.3837C13.6238 12.6175 12.6263 13.615 11.3925 13.9212C10.7013 14.0962 10.0363 14.0612 9.45875 13.8687C9.45875 13.8687 8.2075 15.12 7.30625 16.0212C6.86875 16.4587 7.00875 17.2287 7.595 17.4562C8.53125 17.815 9.5025 17.9987 10.5 17.9987C12.0575 17.9987 13.5713 17.5437 14.9538 16.695C16.3625 15.82 17.6313 14.5337 18.655 12.8975C19.4863 11.5762 19.4425 9.35375 18.6113 8.0325Z" fill="#C7C7C7"/>
<path d="M12.2675 8.7325L8.7325 12.2675C8.28625 11.8125 7.9975 11.1825 7.9975 10.5C7.9975 9.12625 9.1175 7.9975 10.5 7.9975C11.1825 7.9975 11.8125 8.28625 12.2675 8.7325Z" fill="#C7C7C7"/>
<path d="M15.9688 5.03125L13.0025 7.9975C12.3637 7.35 11.48 6.965 10.5 6.965C8.54 6.965 6.965 8.54875 6.965 10.5C6.965 11.48 7.35875 12.3638 7.9975 13.0025L5.04 15.9688H5.03125C4.06 15.1813 3.1675 14.175 2.40625 12.985C1.53125 11.6113 1.53125 9.38 2.40625 8.00625C3.42125 6.41375 4.66375 5.1625 6.04625 4.305C7.42875 3.465 8.9425 3.00125 10.5 3.00125C12.4513 3.00125 14.3413 3.71875 15.9688 5.03125Z" fill="#C7C7C7"/>
<path d="M13.0025 10.5C13.0025 11.8738 11.8825 13.0025 10.5 13.0025C10.4475 13.0025 10.4038 13.0025 10.3513 12.985L12.985 10.3513C13.0025 10.4038 13.0025 10.4475 13.0025 10.5Z" fill="#C7C7C7"/>
<path d="M19.0488 1.95125C18.7863 1.68875 18.3575 1.68875 18.095 1.95125L1.95125 18.1038C1.68875 18.3663 1.68875 18.795 1.95125 19.0575C2.0825 19.18 2.24875 19.25 2.42375 19.25C2.59875 19.25 2.765 19.18 2.89625 19.0488L19.0488 2.89625C19.32 2.63375 19.32 2.21375 19.0488 1.95125Z" fill="#C7C7C7"/>
</svg>
