<svg width="21" height="21" viewBox="0 0 21 21" fill="none" xmlns="http://www.w3.org/2000/svg">
<path d="M18.5938 8.00625C16.5725 4.83 13.615 3.00125 10.5 3.00125C8.9425 3.00125 7.42875 3.45625 6.04625 4.305C4.66375 5.1625 3.42125 6.41375 2.40625 8.00625C1.53125 9.38 1.53125 11.6113 2.40625 12.985C4.4275 16.17 7.385 17.99 10.5 17.99C12.0575 17.99 13.5712 17.535 14.9538 16.6863C16.3363 15.8288 17.5787 14.5775 18.5938 12.985C19.4688 11.62 19.4688 9.38 18.5938 8.00625ZM10.5 14.035C8.54 14.035 6.965 12.4513 6.965 10.5C6.965 8.54875 8.54 6.965 10.5 6.965C12.46 6.965 14.035 8.54875 14.035 10.5C14.035 12.4513 12.46 14.035 10.5 14.035Z" fill="#9D7149"/>
<path d="M10.5 7.9975C9.12626 7.9975 8.00626 9.1175 8.00626 10.5C8.00626 11.8737 9.12626 12.9937 10.5 12.9937C11.8738 12.9937 13.0025 11.8737 13.0025 10.5C13.0025 9.12625 11.8738 7.9975 10.5 7.9975Z" fill="#9D7149"/>
</svg>
