<svg width="68" height="47" viewBox="0 0 68 47" fill="none" xmlns="http://www.w3.org/2000/svg">
<path d="M5.78455 31.7157C5.78455 16.1724 18.1745 3.57141 33.4576 3.57141C48.7408 3.57141 61.1308 16.1728 61.1308 31.7157H5.78455Z" fill="#9D7149"/>
<path d="M8.20834 31.3125C8.20834 17.3678 19.513 6.06317 33.4577 6.06317C47.4024 6.06317 58.707 17.3678 58.707 31.3125H8.20834Z" fill="#FFEACE"/>
<path d="M33.4576 6.06366C31.859 6.06366 30.2977 6.21895 28.7816 6.50322C40.4907 8.69712 49.3545 18.9669 49.3545 31.313H58.707C58.707 17.3679 47.4023 6.06366 33.4576 6.06366Z" fill="#38342F" fill-opacity="0.2"/>
<path d="M33.4577 4.74752C34.7686 4.74752 35.8314 3.68474 35.8314 2.37375C35.8314 1.06276 34.7686 0 33.4577 0C32.1467 0 31.0839 1.06276 31.0839 2.37375C31.0839 3.68474 32.1467 4.74752 33.4577 4.74752Z" fill="#9D7149"/>
<path d="M40.5202 33.7692C39.8064 34.4176 39.2519 35.2204 38.5803 35.9113C37.9086 36.6023 37.0611 37.2011 36.099 37.2629C33.7104 36.4799 31.7266 34.2544 31.2866 31.7789C30.1539 31.5902 29.0602 31.4503 27.9837 31.3459C28.7062 33.7504 30.2772 35.978 32.4491 37.4902C29.913 36.2338 27.795 33.9956 26.6522 31.2393C25.9701 31.1923 25.291 31.1572 24.6141 31.1397C25.3072 33.6227 26.9054 35.935 29.1388 37.4902C26.568 36.2167 24.4276 33.9346 23.2967 31.1261C22.6391 31.1261 21.9771 31.1362 21.3094 31.1599C22.0056 33.6354 23.6011 35.939 25.8288 37.4902C23.2866 36.2307 21.1647 33.9855 20.0245 31.2195C19.1765 31.266 18.3189 31.3226 17.4318 31.3994C19.9389 36.6365 24.6672 40.7642 30.1947 42.5417C31.6696 43.016 32.7281 44.2996 33.6761 45.588C34.0679 46.1206 34.6917 46.4316 35.3528 46.4316H39.3344C40.833 46.4316 41.8069 44.9164 41.2559 43.5226C41.0975 43.1204 40.9746 42.7054 40.89 42.2895C40.5561 40.6523 40.9304 38.8826 41.8977 37.52C43.2466 35.6192 45.6735 34.4751 46.4092 32.2632C44.3583 31.6657 42.1003 32.3334 40.5202 33.7692Z" fill="#9D7149"/>
<path d="M67.4545 31.7152C67.4545 31.0848 66.9966 30.564 66.396 30.4596V30.4377H66.1806C66.1793 30.4377 66.1775 30.4373 66.1762 30.4373C66.1749 30.4373 66.1731 30.4377 66.1718 30.4377H0.938365V30.489C0.398774 30.6391 0 31.1286 0 31.7156C0 32.303 0.398335 32.7926 0.938365 32.9426V32.994H66.396V32.9711C66.9966 32.8667 67.4545 32.346 67.4545 31.7152Z" fill="#9D7149"/>
</svg>
