<svg width="155" height="39" viewBox="0 0 155 39" fill="none" xmlns="http://www.w3.org/2000/svg">
<path fill-rule="evenodd" clip-rule="evenodd" d="M17.3304 36.4677C17.4095 36.8752 17.2717 37.2951 16.9673 37.573C16.663 37.8523 16.2365 37.9491 15.8437 37.8285C6.38922 34.8351 -0.908847 26.8715 0.0919038 18.4363C1.48541 6.68434 9.50607 0 21.8165 0C34.1267 0 42.3885 8.49532 43.8731 20.288C45.043 29.5757 37.9778 36.6707 28.748 38.5666C28.3054 38.6537 27.8493 38.5022 27.5435 38.1666C27.2374 37.8307 27.1253 37.3588 27.247 36.9193C28.572 32.1036 30.4656 25.2596 31.002 23.3234C31.0938 22.9909 31.3104 22.7073 31.6051 22.5333C32.5809 21.946 34.4714 22.0867 35.0263 18.2079C35.3619 15.8619 35.9681 12.1969 35.1348 9.93403L33.9527 16.1882L33.1376 16.0121L34.2813 8.6022C34.029 8.24798 33.6823 8.3862 33.6823 8.3862L31.9539 15.7835L31.1159 15.6479L32.5416 8.19762L32.0696 8.06653C31.9024 8.01141 29.8783 15.42 29.8783 15.42L29.0884 15.2896L30.8312 8.7796C29.1205 10.2913 28.3456 13.2598 27.4698 16.3845C26.5505 19.6627 27.7994 20.4877 28.608 21.5393C28.937 21.953 29.023 22.5128 28.8333 23.0085C28.8333 23.0085 24.182 35.1437 22.9718 38.3006C22.7996 38.7498 22.3575 39.033 21.8828 38.9969C21.8434 38.9938 21.8035 38.9902 21.7639 38.9878C21.5545 38.9709 21.3771 38.8248 21.3182 38.6211C20.1154 34.4562 17.3271 24.8021 16.6597 22.4882C16.5675 22.1701 16.5968 21.8275 16.7414 21.5296C17.2168 20.528 18.2466 18.0378 17.9652 15.7685C17.5616 12.5098 15.4435 8.18992 11.3045 9.7579C7.54162 11.1833 7.77788 15.6755 9.83855 18.8863C10.9726 20.6535 12.6923 21.8492 13.8555 22.2924C14.3413 22.4699 14.6996 22.8921 14.799 23.4047C14.799 23.4047 16.5539 32.4603 17.3304 36.4677Z" fill="#9D7149"/>
<path d="M55.765 15L52.33 4.5H54.85L57.835 13.8H56.575L59.695 4.5H61.945L64.945 13.8H63.73L66.79 4.5H69.115L65.68 15H63.07L60.415 6.84H61.105L58.375 15H55.765ZM74.656 15V13.425L74.506 13.08V10.26C74.506 9.76 74.351 9.37 74.041 9.09C73.741 8.81 73.276 8.67 72.646 8.67C72.216 8.67 71.791 8.74 71.371 8.88C70.961 9.01 70.611 9.19 70.321 9.42L69.481 7.785C69.921 7.475 70.451 7.235 71.071 7.065C71.691 6.895 72.321 6.81 72.961 6.81C74.191 6.81 75.146 7.1 75.826 7.68C76.506 8.26 76.846 9.165 76.846 10.395V15H74.656ZM72.196 15.12C71.566 15.12 71.026 15.015 70.576 14.805C70.126 14.585 69.781 14.29 69.541 13.92C69.301 13.55 69.181 13.135 69.181 12.675C69.181 12.195 69.296 11.775 69.526 11.415C69.766 11.055 70.141 10.775 70.651 10.575C71.161 10.365 71.826 10.26 72.646 10.26H74.791V11.625H72.901C72.351 11.625 71.971 11.715 71.761 11.895C71.561 12.075 71.461 12.3 71.461 12.57C71.461 12.87 71.576 13.11 71.806 13.29C72.046 13.46 72.371 13.545 72.781 13.545C73.171 13.545 73.521 13.455 73.831 13.275C74.141 13.085 74.366 12.81 74.506 12.45L74.866 13.53C74.696 14.05 74.386 14.445 73.936 14.715C73.486 14.985 72.906 15.12 72.196 15.12ZM78.9638 15V6.93H81.1988V9.21L80.8838 8.55C81.1238 7.98 81.5088 7.55 82.0388 7.26C82.5688 6.96 83.2138 6.81 83.9738 6.81V8.97C83.8738 8.96 83.7838 8.955 83.7038 8.955C83.6238 8.945 83.5388 8.94 83.4488 8.94C82.8088 8.94 82.2888 9.125 81.8888 9.495C81.4988 9.855 81.3038 10.42 81.3038 11.19V15H78.9638ZM88.8288 15.12C88.1588 15.12 87.5588 14.99 87.0288 14.73C86.5088 14.47 86.1038 14.075 85.8138 13.545C85.5238 13.005 85.3788 12.32 85.3788 11.49V6.93H87.7188V11.145C87.7188 11.815 87.8588 12.31 88.1388 12.63C88.4288 12.94 88.8338 13.095 89.3538 13.095C89.7138 13.095 90.0338 13.02 90.3138 12.87C90.5938 12.71 90.8138 12.47 90.9738 12.15C91.1338 11.82 91.2138 11.41 91.2138 10.92V6.93H93.5538V15H91.3338V12.78L91.7388 13.425C91.4688 13.985 91.0688 14.41 90.5388 14.7C90.0188 14.98 89.4488 15.12 88.8288 15.12ZM100.627 6.81C101.267 6.81 101.837 6.94 102.337 7.2C102.847 7.45 103.247 7.84 103.537 8.37C103.827 8.89 103.972 9.56 103.972 10.38V15H101.632V10.74C101.632 10.09 101.487 9.61 101.197 9.3C100.917 8.99 100.517 8.835 99.9966 8.835C99.6266 8.835 99.2916 8.915 98.9916 9.075C98.7016 9.225 98.4716 9.46 98.3016 9.78C98.1416 10.1 98.0616 10.51 98.0616 11.01V15H95.7216V6.93H97.9566V9.165L97.5366 8.49C97.8266 7.95 98.2416 7.535 98.7816 7.245C99.3216 6.955 99.9366 6.81 100.627 6.81ZM109.946 18.03C109.186 18.03 108.451 17.935 107.741 17.745C107.041 17.565 106.456 17.29 105.986 16.92L106.916 15.24C107.256 15.52 107.686 15.74 108.206 15.9C108.736 16.07 109.256 16.155 109.766 16.155C110.596 16.155 111.196 15.97 111.566 15.6C111.946 15.23 112.136 14.68 112.136 13.95V12.735L112.286 10.71L112.256 8.67V6.93H114.476V13.65C114.476 15.15 114.086 16.255 113.306 16.965C112.526 17.675 111.406 18.03 109.946 18.03ZM109.586 14.61C108.836 14.61 108.156 14.45 107.546 14.13C106.946 13.8 106.461 13.345 106.091 12.765C105.731 12.175 105.551 11.49 105.551 10.71C105.551 9.92 105.731 9.235 106.091 8.655C106.461 8.065 106.946 7.61 107.546 7.29C108.156 6.97 108.836 6.81 109.586 6.81C110.266 6.81 110.866 6.95 111.386 7.23C111.906 7.5 112.311 7.925 112.601 8.505C112.891 9.075 113.036 9.81 113.036 10.71C113.036 11.6 112.891 12.335 112.601 12.915C112.311 13.485 111.906 13.91 111.386 14.19C110.866 14.47 110.266 14.61 109.586 14.61ZM110.051 12.69C110.461 12.69 110.826 12.61 111.146 12.45C111.466 12.28 111.716 12.045 111.896 11.745C112.076 11.445 112.166 11.1 112.166 10.71C112.166 10.31 112.076 9.965 111.896 9.675C111.716 9.375 111.466 9.145 111.146 8.985C110.826 8.815 110.461 8.73 110.051 8.73C109.641 8.73 109.276 8.815 108.956 8.985C108.636 9.145 108.381 9.375 108.191 9.675C108.011 9.965 107.921 10.31 107.921 10.71C107.921 11.1 108.011 11.445 108.191 11.745C108.381 12.045 108.636 12.28 108.956 12.45C109.276 12.61 109.641 12.69 110.051 12.69ZM53.245 33V22.5H57.79C58.73 22.5 59.54 22.655 60.22 22.965C60.9 23.265 61.425 23.7 61.795 24.27C62.165 24.84 62.35 25.52 62.35 26.31C62.35 27.09 62.165 27.765 61.795 28.335C61.425 28.905 60.9 29.345 60.22 29.655C59.54 29.955 58.73 30.105 57.79 30.105H54.595L55.675 29.01V33H53.245ZM55.675 29.28L54.595 28.125H57.655C58.405 28.125 58.965 27.965 59.335 27.645C59.705 27.325 59.89 26.88 59.89 26.31C59.89 25.73 59.705 25.28 59.335 24.96C58.965 24.64 58.405 24.48 57.655 24.48H54.595L55.675 23.325V29.28ZM67.9102 33.12C66.9902 33.12 66.1802 32.94 65.4802 32.58C64.7902 32.22 64.2552 31.73 63.8752 31.11C63.4952 30.48 63.3052 29.765 63.3052 28.965C63.3052 28.155 63.4902 27.44 63.8602 26.82C64.2402 26.19 64.7552 25.7 65.4052 25.35C66.0552 24.99 66.7902 24.81 67.6102 24.81C68.4002 24.81 69.1102 24.98 69.7402 25.32C70.3802 25.65 70.8852 26.13 71.2552 26.76C71.6252 27.38 71.8102 28.125 71.8102 28.995C71.8102 29.085 71.8052 29.19 71.7952 29.31C71.7852 29.42 71.7752 29.525 71.7652 29.625H65.2102V28.26H70.5352L69.6352 28.665C69.6352 28.245 69.5502 27.88 69.3802 27.57C69.2102 27.26 68.9752 27.02 68.6752 26.85C68.3752 26.67 68.0252 26.58 67.6252 26.58C67.2252 26.58 66.8702 26.67 66.5602 26.85C66.2602 27.02 66.0252 27.265 65.8552 27.585C65.6852 27.895 65.6002 28.265 65.6002 28.695V29.055C65.6002 29.495 65.6952 29.885 65.8852 30.225C66.0852 30.555 66.3602 30.81 66.7102 30.99C67.0702 31.16 67.4902 31.245 67.9702 31.245C68.4002 31.245 68.7752 31.18 69.0952 31.05C69.4252 30.92 69.7252 30.725 69.9952 30.465L71.2402 31.815C70.8702 32.235 70.4052 32.56 69.8452 32.79C69.2852 33.01 68.6402 33.12 67.9102 33.12ZM77.2681 33.12C76.3981 33.12 75.6231 32.945 74.9431 32.595C74.2631 32.235 73.7281 31.74 73.3381 31.11C72.9581 30.48 72.7681 29.765 72.7681 28.965C72.7681 28.155 72.9581 27.44 73.3381 26.82C73.7281 26.19 74.2631 25.7 74.9431 25.35C75.6231 24.99 76.3981 24.81 77.2681 24.81C78.1181 24.81 78.8581 24.99 79.4881 25.35C80.1181 25.7 80.5831 26.205 80.8831 26.865L79.0681 27.84C78.8581 27.46 78.5931 27.18 78.2731 27C77.9631 26.82 77.6231 26.73 77.2531 26.73C76.8531 26.73 76.4931 26.82 76.1731 27C75.8531 27.18 75.5981 27.435 75.4081 27.765C75.2281 28.095 75.1381 28.495 75.1381 28.965C75.1381 29.435 75.2281 29.835 75.4081 30.165C75.5981 30.495 75.8531 30.75 76.1731 30.93C76.4931 31.11 76.8531 31.2 77.2531 31.2C77.6231 31.2 77.9631 31.115 78.2731 30.945C78.5931 30.765 78.8581 30.48 79.0681 30.09L80.8831 31.08C80.5831 31.73 80.1181 32.235 79.4881 32.595C78.8581 32.945 78.1181 33.12 77.2681 33.12ZM86.1329 33.12C85.2129 33.12 84.4029 32.94 83.7029 32.58C83.0129 32.22 82.4779 31.73 82.0979 31.11C81.7179 30.48 81.5279 29.765 81.5279 28.965C81.5279 28.155 81.7129 27.44 82.0829 26.82C82.4629 26.19 82.9779 25.7 83.6279 25.35C84.2779 24.99 85.0129 24.81 85.8329 24.81C86.6229 24.81 87.3329 24.98 87.9629 25.32C88.6029 25.65 89.1079 26.13 89.4779 26.76C89.8479 27.38 90.0329 28.125 90.0329 28.995C90.0329 29.085 90.0279 29.19 90.0179 29.31C90.0079 29.42 89.9979 29.525 89.9879 29.625H83.4329V28.26H88.7579L87.8579 28.665C87.8579 28.245 87.7729 27.88 87.6029 27.57C87.4329 27.26 87.1979 27.02 86.8979 26.85C86.5979 26.67 86.2479 26.58 85.8479 26.58C85.4479 26.58 85.0929 26.67 84.7829 26.85C84.4829 27.02 84.2479 27.265 84.0779 27.585C83.9079 27.895 83.8229 28.265 83.8229 28.695V29.055C83.8229 29.495 83.9179 29.885 84.1079 30.225C84.3079 30.555 84.5829 30.81 84.9329 30.99C85.2929 31.16 85.7129 31.245 86.1929 31.245C86.6229 31.245 86.9979 31.18 87.3179 31.05C87.6479 30.92 87.9479 30.725 88.2179 30.465L89.4629 31.815C89.0929 32.235 88.6279 32.56 88.0679 32.79C87.5079 33.01 86.8629 33.12 86.1329 33.12ZM91.5907 33V21.87H93.9307V33H91.5907ZM100.516 33V22.5H105.061C106.001 22.5 106.811 22.655 107.491 22.965C108.171 23.265 108.696 23.7 109.066 24.27C109.436 24.84 109.621 25.52 109.621 26.31C109.621 27.09 109.436 27.765 109.066 28.335C108.696 28.905 108.171 29.345 107.491 29.655C106.811 29.955 106.001 30.105 105.061 30.105H101.866L102.946 29.01V33H100.516ZM102.946 29.28L101.866 28.125H104.926C105.676 28.125 106.236 27.965 106.606 27.645C106.976 27.325 107.161 26.88 107.161 26.31C107.161 25.73 106.976 25.28 106.606 24.96C106.236 24.64 105.676 24.48 104.926 24.48H101.866L102.946 23.325V29.28ZM111.337 33V24.93H113.677V33H111.337ZM112.507 23.805C112.077 23.805 111.727 23.68 111.457 23.43C111.187 23.18 111.052 22.87 111.052 22.5C111.052 22.13 111.187 21.82 111.457 21.57C111.727 21.32 112.077 21.195 112.507 21.195C112.937 21.195 113.287 21.315 113.557 21.555C113.827 21.785 113.962 22.085 113.962 22.455C113.962 22.845 113.827 23.17 113.557 23.43C113.297 23.68 112.947 23.805 112.507 23.805ZM120.754 24.81C121.394 24.81 121.964 24.94 122.464 25.2C122.974 25.45 123.374 25.84 123.664 26.37C123.954 26.89 124.099 27.56 124.099 28.38V33H121.759V28.74C121.759 28.09 121.614 27.61 121.324 27.3C121.044 26.99 120.644 26.835 120.124 26.835C119.754 26.835 119.419 26.915 119.119 27.075C118.829 27.225 118.599 27.46 118.429 27.78C118.269 28.1 118.189 28.51 118.189 29.01V33H115.849V24.93H118.084V27.165L117.664 26.49C117.954 25.95 118.369 25.535 118.909 25.245C119.449 24.955 120.064 24.81 120.754 24.81ZM130.178 33.12C129.308 33.12 128.533 32.945 127.853 32.595C127.173 32.235 126.638 31.74 126.248 31.11C125.868 30.48 125.678 29.765 125.678 28.965C125.678 28.155 125.868 27.44 126.248 26.82C126.638 26.19 127.173 25.7 127.853 25.35C128.533 24.99 129.308 24.81 130.178 24.81C131.028 24.81 131.768 24.99 132.398 25.35C133.028 25.7 133.493 26.205 133.793 26.865L131.978 27.84C131.768 27.46 131.503 27.18 131.183 27C130.873 26.82 130.533 26.73 130.163 26.73C129.763 26.73 129.403 26.82 129.083 27C128.763 27.18 128.508 27.435 128.318 27.765C128.138 28.095 128.048 28.495 128.048 28.965C128.048 29.435 128.138 29.835 128.318 30.165C128.508 30.495 128.763 30.75 129.083 30.93C129.403 31.11 129.763 31.2 130.163 31.2C130.533 31.2 130.873 31.115 131.183 30.945C131.503 30.765 131.768 30.48 131.978 30.09L133.793 31.08C133.493 31.73 133.028 32.235 132.398 32.595C131.768 32.945 131.028 33.12 130.178 33.12ZM138.546 33.12C137.876 33.12 137.276 32.99 136.746 32.73C136.226 32.47 135.821 32.075 135.531 31.545C135.241 31.005 135.096 30.32 135.096 29.49V24.93H137.436V29.145C137.436 29.815 137.576 30.31 137.856 30.63C138.146 30.94 138.551 31.095 139.071 31.095C139.431 31.095 139.751 31.02 140.031 30.87C140.311 30.71 140.531 30.47 140.691 30.15C140.851 29.82 140.931 29.41 140.931 28.92V24.93H143.271V33H141.051V30.78L141.456 31.425C141.186 31.985 140.786 32.41 140.256 32.7C139.736 32.98 139.166 33.12 138.546 33.12ZM147.373 31.35L147.433 28.5L151.198 24.93H153.988L150.373 28.605L149.158 29.595L147.373 31.35ZM145.438 33V21.87H147.778V33H145.438ZM151.453 33L148.723 29.61L150.193 27.795L154.288 33H151.453Z" fill="#9D7149"/>
</svg>
