<svg width="63" height="52" viewBox="0 0 63 52" fill="none" xmlns="http://www.w3.org/2000/svg">
<path d="M33.3476 40.4017C33.2422 40.501 33.1429 40.594 33.0372 40.6936C28.3159 45.1229 22.439 50.6335 18.9287 48.0368C16.0093 44.8617 20.6747 38.5749 24.5513 33.444C25.75 34.438 27.0424 35.4879 28.3907 36.569L21.1159 44.6632C20.8854 44.9243 20.9108 45.3153 21.165 45.5455C21.2836 45.6509 21.4325 45.7005 21.5755 45.7005C21.7492 45.7005 21.9171 45.6325 22.0411 45.4956L29.3655 37.3451C30.6514 38.3576 31.9874 39.3828 33.3476 40.4017Z" fill="#FFEACE"/>
<path d="M48.158 3.4752L47.9219 5.25228C47.7479 5.21471 47.5551 5.25227 47.4066 5.37015C47.1332 5.58133 47.0832 5.96625 47.2944 6.23957C47.3319 6.2897 51.1153 11.2719 47.5614 15.2228C47.5553 15.2294 47.5553 15.2356 47.5553 15.2356L46.4188 16.4962C46.3939 16.5276 46.3627 16.5586 46.3379 16.5892L38.6349 25.1624C38.5911 25.1195 38.5478 25.0755 38.5038 25.0322C39.3242 20.137 35.3298 16.5278 35.1495 16.366C34.8947 16.1419 34.4972 16.1672 34.2732 16.4215C34.0435 16.6765 34.0682 17.0677 34.3232 17.298C34.3601 17.3287 37.4603 20.137 37.3548 23.9205C36.0564 22.6652 34.6771 21.3484 33.2111 19.9694C31.6763 18.5276 29.8066 17.7015 27.9924 17.5775C26.7997 14.5895 26.427 12.8807 28.8189 11.4083C31.6333 9.67502 33.3042 10.874 35.2362 12.2534C36.8327 13.3966 38.6406 14.695 40.8588 13.5768C43.2997 12.3525 42.8648 10.2402 42.5853 8.84263C42.2377 7.13439 41.9645 5.78608 44.5734 4.22072C45.6856 3.54978 46.8845 3.30132 48.158 3.4752Z" fill="#FFEACE"/>
<path d="M58.7315 11.3898C60.3531 13.6261 60.6944 15.8071 59.7503 17.8571C58.4704 20.6092 57.0974 20.4783 55.3647 20.3173C53.9417 20.1866 51.7925 19.9877 50.8357 22.5474C49.9659 24.8707 51.4506 26.5294 52.755 27.9894C54.3337 29.7661 55.6998 31.2946 54.2774 34.2826C53.2209 36.5003 51.7862 36.6553 49.2388 36.0345C47.3874 33.9907 45.1574 31.6545 42.492 28.977C44.6169 29.3125 46.0581 30.2882 46.0768 30.3006C46.1822 30.375 46.307 30.4122 46.431 30.4122C46.6236 30.4122 46.816 30.319 46.9402 30.145C47.1332 29.8655 47.0649 29.4804 46.7854 29.2818C46.6797 29.207 44.375 27.6354 41.1384 27.623C40.6162 27.107 40.0758 26.5727 39.5226 26.0261L47.2448 17.4343C47.2572 17.422 47.282 17.3973 47.2942 17.3849L47.3381 17.3348C51.7614 12.4957 56.0846 15.2786 56.2776 15.4095C56.5574 15.5953 56.9422 15.5214 57.135 15.2416C57.3272 14.9559 57.2526 14.5704 56.9671 14.3778C56.9299 14.3529 54.1531 12.5267 50.6677 13.6261L55.8551 7.84905C56.0847 7.59431 56.0663 7.2031 55.8121 6.97281C55.557 6.74333 55.1591 6.76191 54.9295 7.01666L50.2706 12.2101C50.6927 8.66875 48.3071 5.52574 48.2761 5.4819C48.1829 5.36415 48.0589 5.28329 47.9219 5.25242L48.1581 3.47534C49.1706 3.61221 50.2326 4.01584 51.3386 4.6805C52.4075 5.3326 53.6871 5.4696 54.8422 5.0407C54.861 5.03455 54.8793 5.02827 54.8985 5.02212C55.9049 4.6495 56.8554 4.30132 57.7431 4.51932C57.9171 4.56262 58.0788 4.6372 58.2095 4.74265C58.6563 5.10312 58.6879 5.59977 58.3338 6.95423L58.0602 7.99781C57.7623 9.16581 58.0107 10.402 58.7315 11.3898Z" fill="#FFEACE"/>
<path d="M20.8302 15.2663C20.8547 15.844 20.9727 16.4215 21.1651 16.9684C19.5065 15.4465 17.991 13.794 16.6494 12.0606C16.5931 11.9614 16.5309 11.868 16.4501 11.7934C16.1519 11.3958 15.8539 11.0047 15.5744 10.6074C14.9406 9.69398 14.4749 8.91704 14.2762 8.10322C14.0773 7.31453 14.1952 6.53131 14.5805 6.06552C14.7976 5.81132 15.1642 5.6496 15.4752 5.6496C15.6178 5.6496 15.7485 5.68675 15.8478 5.75505C16.3509 6.10937 16.3509 7.23982 16.289 8.18408C16.233 9.12835 16.0776 11.6385 17.985 12.7751C18.5872 13.1419 19.2461 13.2473 19.7739 13.3342C20.1466 13.3966 20.5692 13.4644 20.6873 13.5892C20.8181 13.7377 20.8181 14.2599 20.8181 14.6764C20.8241 14.8752 20.8241 15.074 20.8302 15.2663Z" fill="#FFEACE"/>
<path d="M18.8733 20.5651C18.7984 20.553 18.7303 20.5407 18.6554 20.5283C16.8357 20.2549 15.0961 21.0872 14.4316 22.5534C14.2013 23.0688 14.1328 23.566 14.071 24.0071C14.0457 24.1683 14.0274 24.3238 13.9965 24.4793C13.9655 24.6342 13.9155 24.7527 13.8788 24.8207C13.7788 24.7651 13.6238 24.6472 13.4559 24.4478C13.3814 24.3609 13.3127 24.2676 13.2388 24.1812C12.8224 23.6531 12.3002 22.9946 11.4369 22.6898C11.1141 22.572 10.7968 22.5225 10.4988 22.5225C9.48607 22.5225 8.60382 23.0689 7.91457 23.4915C7.5918 23.6963 7.28692 23.8827 7.00745 24.001C6.45452 24.237 5.80844 24.1999 5.35481 23.9141C4.93889 23.647 4.67786 23.1125 4.75244 22.6713C4.8766 21.9382 5.78972 21.3296 6.53525 20.9503C8.29949 20.0499 10.2439 19.5526 12.2069 19.4408C12.3437 19.4284 12.4802 19.4347 12.6172 19.4223C12.6358 19.4223 12.6481 19.416 12.6666 19.416C14.7851 19.354 16.9159 19.7452 18.8733 20.5651Z" fill="#FFEACE"/>
<path d="M15.1084 14.1168C16.1272 15.3843 17.233 16.608 18.4073 17.7637C16.5185 17.1676 14.5245 16.888 12.5365 16.9499C12.4994 16.9499 12.4617 16.9436 12.4247 16.9436C12.3564 16.9499 12.2815 16.9499 12.2132 16.9561C12.1946 16.9561 12.1699 16.9561 12.1513 16.9561C10.0268 17.0678 7.64103 16.6017 5.39871 15.6144C4.26759 15.117 3.59063 14.5765 3.32345 13.9619C3.20557 13.6762 3.22402 13.2783 3.37959 12.9864C3.43519 12.8868 3.52206 12.7628 3.64677 12.7381C3.82079 12.7006 4.13755 12.7628 4.44161 12.8185C5.09397 12.9431 5.9888 13.1171 6.86491 12.6321C7.78445 12.123 8.11323 11.2036 8.34967 10.5326C8.44911 10.2469 8.59773 9.82425 8.71001 9.74954C8.77803 9.72509 9.06365 9.78724 9.28766 10.017C9.57956 10.3212 9.79688 10.7937 10.0269 11.2967C10.0953 11.446 10.1634 11.5948 10.2318 11.7379C10.6047 12.5143 11.2382 13.6017 12.4249 14.0858C13.3628 14.4712 14.3256 14.3348 15.1084 14.1168Z" fill="#FFEACE"/>
<path d="M54.9478 47.291C55.737 48.6704 55.7927 49.2602 55.7743 49.4588C55.7117 49.4837 55.594 49.5088 55.389 49.515C54.8239 49.5273 54.1655 49.4405 53.4201 49.2541C53.7803 48.5334 54.3144 47.8502 54.9478 47.291Z" fill="#FFEACE"/>
<path d="M52.4258 43.6382C53.2207 44.663 53.8297 45.5139 54.2956 46.2285C53.4139 46.9616 52.6808 47.9056 52.2211 48.8997C51.4131 48.6266 50.5309 48.2662 49.5683 47.8129C50.208 46.2347 51.1901 44.8062 52.4258 43.6382Z" fill="#FFEACE"/>
<path d="M48.8044 39.3079C49.9224 40.569 50.8604 41.6812 51.6491 42.663C50.2704 43.9423 49.1706 45.5264 48.4562 47.2658C47.251 46.6573 45.9466 45.9243 44.549 45.0733C45.5362 42.8863 47.0023 40.8919 48.8044 39.3079Z" fill="#FFEACE"/>
<path d="M46.9776 37.2767C47.3258 37.6553 47.6548 38.022 47.9777 38.3824C46.0891 40.0473 44.536 42.1287 43.4863 44.415C42.3311 43.6942 41.126 42.8927 39.8644 42.0294C40.9265 39.3518 42.9086 37.0346 45.3874 35.5684C45.9279 36.1398 46.4557 36.7114 46.9776 37.2767Z" fill="#FFEACE"/>
<path d="M41.4117 31.4432C42.4428 32.493 43.4803 33.5618 44.505 34.6368C41.9892 36.1959 39.9578 38.5686 38.8079 41.2962C37.9385 40.6873 37.0438 40.0411 36.1304 39.3703C36.0627 39.3079 35.9878 39.2584 35.9071 39.2086C35.4473 38.8667 34.9753 38.519 34.4971 38.1588C36.1744 35.3699 38.5725 33.0335 41.4117 31.4432Z" fill="#FFEACE"/>
<path d="M36.8267 26.8835C37.9948 28.0264 39.2369 29.2502 40.4983 30.5236C37.6466 32.1948 35.2243 34.5804 33.5031 37.4074C32.4347 36.5871 31.3414 35.7363 30.2231 34.8476C31.54 31.6049 33.8821 28.7781 36.8267 26.8835Z" fill="#FFEACE"/>
<path d="M32.7637 22.9695C33.6956 23.8517 34.7583 24.8706 35.9134 25.995C32.9687 27.9581 30.6084 30.7908 29.2106 34.0399C27.9986 33.0648 26.769 32.0584 25.5076 31.002L25.5137 30.9958L25.8309 30.5052C26.0856 30.1078 26.3398 29.7101 26.6134 29.3309C27.682 27.8523 28.6138 26.6787 29.552 25.6407C30.3842 24.7151 31.4716 23.8211 32.7637 22.9695Z" fill="#FFEACE"/>
<path d="M31.5025 21.7765C31.6085 21.8766 31.7264 21.9882 31.8381 22.0938C30.5646 22.957 29.4834 23.8642 28.6263 24.8084C27.6637 25.8834 26.7003 27.0883 25.6069 28.6041C25.315 29.0084 25.0417 29.4305 24.7813 29.8345L24.5513 30.2011C24.4149 30.0824 24.2777 29.9708 24.1475 29.8592C22.2964 28.2936 21.4576 25.914 22.147 24.1936C22.7868 22.5968 24.029 21.3297 25.8309 20.4226C26.3337 20.1678 26.8998 20.0499 27.4958 20.0499C28.8312 20.0501 30.3165 20.6586 31.5025 21.7765Z" fill="#FFEACE"/>
<path d="M60.738 9.92368C62.9 12.9117 63.3412 16.0118 62.0057 18.9004C59.9803 23.2427 57.0665 22.9694 55.1343 22.7953C53.5565 22.6465 53.4202 22.7337 53.1651 23.4168C52.8549 24.2556 53.3392 24.9138 54.6063 26.3368C56.3148 28.2498 58.6566 30.8779 56.5199 35.3506C55.2899 37.941 53.4386 38.7241 51.7054 38.8234C59.1726 47.5514 58.4085 49.5647 58.0852 50.4154C57.8682 50.9811 57.2405 51.944 55.464 51.9938C55.4017 52 55.3333 52 55.2715 52C50.5997 52 42.797 47.2972 35.3791 41.9046C35.168 42.1034 34.957 42.2964 34.7393 42.5011C30.4961 46.4834 25.446 51.2173 20.9727 51.2173C19.6996 51.2173 18.4755 50.8382 17.3324 49.9434C17.2827 49.9124 17.2394 49.8694 17.2021 49.8257C12.6729 45.1353 18.1588 37.7862 22.6441 31.8407C22.6067 31.8161 22.5758 31.7853 22.5381 31.7539C19.9477 29.5613 18.8295 26.2253 19.749 23.5348C19.2645 23.2553 18.8233 23.069 18.2828 22.9887C17.6057 22.8827 16.8912 23.1499 16.6989 23.5848C16.6117 23.7649 16.5746 24.0507 16.531 24.3487C16.5 24.5605 16.4754 24.7776 16.4314 24.9827C16.1897 26.1259 15.5373 26.9454 14.6425 27.2319C14.4186 27.3058 14.183 27.3374 13.9527 27.3374C13.1141 27.3374 12.257 26.8838 11.5485 26.0385C11.4616 25.9395 11.3806 25.8274 11.2943 25.7219C11.0518 25.4176 10.7968 25.1005 10.6045 25.0324C10.3249 24.9332 9.75967 25.2746 9.22518 25.61C8.83384 25.8465 8.43048 26.0945 7.983 26.2871C6.6784 26.8401 5.16235 26.7346 4.02563 26.0138C2.75203 25.1998 2.0565 23.6904 2.29841 22.2556C2.54086 20.8513 3.58457 19.6652 5.40494 18.7395C5.57883 18.6465 5.76528 18.5717 5.94544 18.4848C5.42338 18.3108 4.90747 18.112 4.39839 17.8879C2.66489 17.1241 1.56531 16.1612 1.0438 14.9432C0.627325 13.9745 0.677182 12.7816 1.18039 11.8312C1.61544 11.0112 2.32313 10.4646 3.16864 10.2967C3.81459 10.1727 4.42325 10.2906 4.90747 10.3836C5.13763 10.4274 5.57268 10.5076 5.65969 10.4583C5.75913 10.402 5.92632 9.92997 6.00705 9.70049C6.23106 9.0667 6.54154 8.19673 7.36164 7.66293C8.61666 6.84883 10.1823 7.36434 11.0764 8.28975C11.6672 8.89869 11.996 9.62564 12.2879 10.2657C12.3503 10.4022 12.4127 10.5329 12.4743 10.6692C12.7791 11.3031 13.0648 11.6698 13.3629 11.7876C13.369 11.7876 13.3752 11.7876 13.3814 11.7938C12.7476 10.8681 12.1453 9.85552 11.8597 8.70035C11.4741 7.14087 11.7789 5.56295 12.6669 4.48809C13.8288 3.08419 15.8973 2.74243 17.2895 3.73028C18.9789 4.92929 18.8359 7.22774 18.7743 8.33374C18.6933 9.62577 18.8544 10.4023 19.2585 10.6446C19.4574 10.7628 19.8054 10.8186 20.1779 10.8805C20.911 10.9989 21.8244 11.1477 22.5198 11.9185C23.3029 12.7755 23.3029 13.8753 23.3029 14.6767C23.3029 14.8379 23.3029 14.9995 23.3153 15.1549C23.3648 16.2977 24.0293 17.4284 24.9925 18.0743C25.1413 18.0127 25.2906 17.9503 25.4462 17.9003C24.3463 14.9933 23.6195 11.6943 27.5147 9.29658C31.7391 6.69353 34.5969 8.73723 36.684 10.2344C38.2307 11.3466 38.9453 11.7568 39.7402 11.3594C40.393 11.0298 40.4608 10.8805 40.1504 9.33401C39.7656 7.43291 39.1811 4.56295 43.2877 2.0902C46.1019 0.3944 49.3321 0.556125 52.6311 2.55612C53.0537 2.81715 53.5505 2.87329 53.9918 2.7117C53.998 2.70542 54.0167 2.69927 54.041 2.69312C55.2276 2.25193 56.7063 1.70528 58.3405 2.10878C58.8685 2.2395 59.3592 2.48209 59.7627 2.811C61.6014 4.26504 61.0425 6.42034 60.7381 7.58234L60.465 8.61963C60.3532 9.06656 60.4524 9.53262 60.738 9.92368ZM59.7504 17.8571C60.6946 15.8072 60.3532 13.6262 58.7316 11.3899C58.0109 10.402 57.7625 9.16586 58.0606 7.99786L58.3342 6.95428C58.6883 5.59983 58.6567 5.10317 58.2099 4.7427C58.0792 4.63725 57.9175 4.56281 57.7435 4.51938C56.8558 4.30137 55.9053 4.64969 54.8989 5.02217C54.8797 5.02832 54.8614 5.03447 54.8426 5.04075C53.6875 5.46965 52.4079 5.33265 51.339 4.68055C50.233 4.01589 49.171 3.61226 48.1585 3.47539C46.8849 3.30137 45.6859 3.54984 44.5738 4.22092C41.9649 5.78628 42.2381 7.13472 42.5857 8.84282C42.8652 10.2404 43.3001 12.3527 40.8592 13.577C38.6411 14.6952 36.8331 13.3968 35.2366 12.2536C33.3045 10.8742 31.6337 9.67522 28.8193 11.4084C26.4274 12.8808 26.8001 14.5897 27.9928 17.5777C29.807 17.7017 31.6767 18.5278 33.2115 19.9696C34.6775 21.3486 36.0569 22.6654 37.3552 23.9207C37.4606 20.1372 34.3604 17.3289 34.3236 17.2982C34.0686 17.0679 34.0439 16.6768 34.2736 16.4217C34.4976 16.1675 34.8951 16.1422 35.1499 16.3662C35.33 16.528 39.3246 20.137 38.5042 25.0324C38.5482 25.0757 38.5915 25.1197 38.6353 25.1626L46.3384 16.5894C46.3631 16.5588 46.3944 16.5278 46.4192 16.4964L47.5557 15.2358C47.5557 15.2358 47.5557 15.2296 47.5618 15.2229C51.1157 11.2721 47.3323 6.2899 47.2948 6.23977C47.0836 5.96644 47.1336 5.58152 47.4071 5.37035C47.5557 5.25247 47.7483 5.21491 47.9223 5.25247C48.0593 5.28348 48.1833 5.3642 48.2765 5.48195C48.3075 5.52579 50.6929 8.6688 50.271 12.2101L54.9299 7.01671C55.1595 6.76196 55.5574 6.74338 55.8125 6.97286C56.0667 7.20329 56.0851 7.59436 55.8555 7.84911L50.6681 13.6262C54.1537 12.5267 56.9303 14.3531 56.9675 14.3778C57.2531 14.5704 57.3277 14.9559 57.1354 15.2417C56.9426 15.5214 56.5577 15.5953 56.278 15.4095C56.085 15.2787 51.7618 12.4957 47.3385 17.3348L47.2946 17.3849C47.2823 17.3972 47.2576 17.4221 47.2452 17.4344L39.523 26.0261C40.0762 26.5727 40.6166 27.1071 41.1388 27.623C44.3752 27.6353 46.68 29.2069 46.7858 29.2818C47.0653 29.4804 47.1336 29.8656 46.9406 30.1451C46.8166 30.3191 46.6241 30.4122 46.4314 30.4122C46.3074 30.4122 46.1828 30.3751 46.0772 30.3006C46.0585 30.2882 44.6173 29.3125 42.4924 28.9771C45.1578 31.6546 47.3878 33.9907 49.2392 36.0346C51.7865 36.6554 53.2211 36.5003 54.2778 34.2826C55.7 31.2946 54.334 29.7662 52.7554 27.9895C51.451 26.5294 49.9663 24.8707 50.8361 22.5475C51.7929 19.9879 53.9421 20.1866 55.3651 20.3173C57.0975 20.4784 58.4704 20.6091 59.7504 17.8571ZM55.7745 49.4589C55.7929 49.2603 55.7373 48.6705 54.948 47.2911C54.3144 47.8503 53.7804 48.5335 53.4202 49.2542C54.1656 49.4406 54.8239 49.5274 55.389 49.5151C55.5942 49.5091 55.7119 49.4838 55.7745 49.4589ZM54.2959 46.2286C53.8299 45.5141 53.2209 44.6631 52.426 43.6383C51.1901 44.8063 50.2082 46.2348 49.5685 47.813C50.5311 48.2663 51.4133 48.6267 52.2213 48.8998C52.6811 47.9057 53.4142 46.9617 54.2959 46.2286ZM51.6492 42.663C50.8605 41.6812 49.9224 40.5692 48.8045 39.3079C47.0026 40.8919 45.5364 42.8863 44.5491 45.0733C45.9467 45.9242 47.2512 46.6573 48.4564 47.2658C49.1708 45.5264 50.2706 43.9425 51.6492 42.663ZM47.9779 38.3825C47.655 38.0221 47.3259 37.6555 46.9778 37.2767C46.456 36.7115 45.928 36.1399 45.3875 35.5685C42.9089 37.0346 40.9268 39.3519 39.8645 42.0295C41.126 42.8928 42.3313 43.6943 43.4864 44.4151C44.5361 42.1287 46.0892 40.0474 47.9779 38.3825ZM44.5051 34.6369C43.4803 33.5619 42.4429 32.4931 41.4119 31.4434C38.5726 33.0336 36.1746 35.37 34.4974 38.1593C34.9756 38.5195 35.4476 38.8671 35.9074 39.209C35.9881 39.2587 36.063 39.3083 36.1308 39.3707C37.0441 40.0414 37.9387 40.6877 38.8082 41.2967C39.958 38.5688 41.9894 36.196 44.5051 34.6369ZM40.4985 30.5237C39.237 29.2502 37.995 28.0265 36.8268 26.8836C33.8822 28.778 31.5401 31.605 30.2232 34.8476C31.3417 35.7362 32.4348 36.5871 33.5032 37.4073C35.2245 34.5807 37.6468 32.1949 40.4985 30.5237ZM33.0372 40.6936C33.1429 40.594 33.2422 40.501 33.3477 40.4017C31.9875 39.3829 30.6515 38.3576 29.3657 37.345L22.0413 45.4955C21.9173 45.6324 21.7494 45.7004 21.5757 45.7004C21.4325 45.7004 21.2838 45.651 21.1652 45.5454C20.9109 45.3152 20.8856 44.9242 21.116 44.6631L28.3908 36.5689C27.0425 35.4878 25.7501 34.4379 24.5515 33.4439C20.675 38.5748 16.0095 44.8616 18.9289 48.0367C22.4391 50.6334 28.316 45.1228 33.0372 40.6936ZM35.9136 25.9951C34.7585 24.8707 33.696 23.8518 32.7639 22.9696C31.4718 23.8212 30.3844 24.7152 29.5522 25.6409C28.614 26.6789 27.6822 27.8525 26.6136 29.3311C26.34 29.7102 26.0858 30.108 25.8311 30.5054L25.5139 30.996L25.5078 31.0022C26.7692 32.0586 27.9988 33.065 29.2108 34.0402C30.6086 30.7909 32.9689 27.9582 35.9136 25.9951ZM31.8383 22.0939C31.7266 21.9884 31.6088 21.8767 31.5027 21.7766C30.3167 20.6585 28.8313 20.05 27.496 20.05C26.8998 20.05 26.3337 20.1679 25.8311 20.4226C24.0291 21.3299 22.7868 22.5969 22.1472 24.1937C21.4576 25.9141 22.2965 28.2935 24.1477 29.8593C24.2779 29.9709 24.415 30.0825 24.5515 30.2012L24.7815 29.8346C25.042 29.4305 25.3152 29.0085 25.6071 28.6042C26.7006 27.0884 27.664 25.8836 28.6265 24.8085C29.4836 23.8642 30.5647 22.9571 31.8383 22.0939ZM21.1652 16.9685C20.9727 16.4216 20.8547 15.844 20.8303 15.2664C20.8241 15.0739 20.8241 14.8753 20.8178 14.6764C20.8178 14.26 20.8178 13.7378 20.6871 13.5893C20.569 13.4644 20.1465 13.3967 19.7737 13.3343C19.2459 13.2474 18.587 13.142 17.9848 12.7752C16.0774 11.6386 16.2328 9.12844 16.2888 8.18417C16.3507 7.2399 16.3507 6.10946 15.8476 5.75513C15.7483 5.68684 15.6176 5.64968 15.475 5.64968C15.164 5.64968 14.7974 5.81141 14.5803 6.06561C14.195 6.53153 14.0772 7.31462 14.276 8.1033C14.4747 8.91713 14.9405 9.69407 15.5742 10.6075C15.8536 11.0048 16.1518 11.3959 16.4499 11.7935C16.5307 11.8679 16.5929 11.9614 16.6492 12.0607C17.991 13.794 19.5067 15.4467 21.1652 16.9685ZM18.6556 20.5285C18.7304 20.5408 18.7986 20.5532 18.8734 20.5654C16.9161 19.7454 14.7852 19.3542 12.6669 19.4164C12.6483 19.4164 12.636 19.4226 12.6175 19.4226C12.4805 19.4351 12.3441 19.4288 12.2071 19.4412C10.2442 19.5528 8.29976 20.0503 6.53553 20.9507C5.79 21.33 4.87687 21.9386 4.75271 22.6716C4.67813 23.1128 4.93916 23.6473 5.35509 23.9145C5.80858 24.2001 6.45466 24.2373 7.00773 24.0014C7.2872 23.883 7.59207 23.6966 7.91484 23.4919C8.60409 23.0693 9.48635 22.5229 10.499 22.5229C10.7971 22.5229 11.1143 22.5723 11.4372 22.6902C12.3004 22.995 12.8226 23.6535 13.2391 24.1815C13.313 24.268 13.3816 24.3612 13.4562 24.4482C13.624 24.6476 13.7791 24.7655 13.879 24.8211C13.9159 24.7531 13.9659 24.6346 13.9968 24.4797C14.0278 24.3242 14.046 24.1687 14.0712 24.0075C14.1331 23.5663 14.2015 23.0691 14.4318 22.5538C15.0961 21.0874 16.8359 20.255 18.6556 20.5285ZM18.4075 17.7637C17.2332 16.608 16.1274 15.3843 15.1087 14.1168C14.3258 14.3348 13.363 14.4711 12.4249 14.0858C11.2382 13.6017 10.6046 12.5143 10.2317 11.7379C10.1633 11.5948 10.0954 11.446 10.0268 11.2967C9.79669 10.7936 9.5795 10.3212 9.2876 10.017C9.06359 9.78723 8.77797 9.72507 8.70995 9.74953C8.59767 9.82438 8.44906 10.247 8.34962 10.5326C8.11331 11.2036 7.7844 12.1231 6.86485 12.6321C5.98861 13.1171 5.09392 12.9429 4.44155 12.8185C4.1375 12.7628 3.82087 12.7006 3.64672 12.738C3.52214 12.7628 3.43513 12.8868 3.37954 12.9864C3.2241 13.2783 3.20552 13.6762 3.3234 13.9619C3.59058 14.5766 4.26753 15.1171 5.39866 15.6144C7.64097 16.6017 10.0267 17.0678 12.1513 16.956C12.1699 16.956 12.1946 16.956 12.2132 16.956C12.2815 16.9499 12.3562 16.9499 12.4246 16.9436C12.4616 16.9436 12.4993 16.9499 12.5365 16.9499C14.5247 16.888 16.5187 17.1676 18.4075 17.7637Z" fill="#9D7149"/>
</svg>
