<svg width="121" height="106" viewBox="0 0 121 106" fill="none" xmlns="http://www.w3.org/2000/svg">
<path fill-rule="evenodd" clip-rule="evenodd" d="M47.6587 99.1173C47.8761 100.225 47.4971 101.366 46.66 102.122C45.8232 102.881 44.6504 103.144 43.5703 102.816C17.5703 94.68 -2.49933 73.0354 0.252735 50.109C4.08487 18.1677 26.1417 0 59.9953 0C93.8484 0 116.568 23.0899 120.651 55.1419C123.868 80.3854 104.439 99.669 79.0571 104.822C77.8398 105.059 76.5856 104.647 75.7446 103.735C74.9029 102.822 74.5946 101.539 74.9292 100.345C78.5731 87.2558 83.7803 68.6543 85.2554 63.3918C85.5078 62.488 86.1036 61.7173 86.9141 61.2443C89.5974 59.648 94.7962 60.0306 96.3222 49.4881C97.2453 43.1119 98.9123 33.1505 96.6207 27.0002L93.3698 43.9987L91.1283 43.5199L94.2735 23.3804C93.5797 22.4176 92.6262 22.7933 92.6262 22.7933L87.8733 42.8986L85.5687 42.5302L89.4894 22.2807L88.1915 21.9244C87.7315 21.7746 82.1654 41.9108 82.1654 41.9108L79.9931 41.5564L84.7859 23.8625C80.0813 27.9713 77.9504 36.0396 75.542 44.5321C73.0139 53.4422 76.4483 55.6845 78.672 58.5427C79.5768 59.6671 79.8133 61.1888 79.2917 62.5359C79.2917 62.5359 66.5004 95.5188 63.1724 104.099C62.699 105.32 61.4833 106.09 60.1777 105.992H60.1766C60.0683 105.983 59.9595 105.973 59.8508 105.967C59.2748 105.921 58.7871 105.524 58.6251 104.97C55.3172 93.6503 47.6495 67.4109 45.8141 61.1218C45.5605 60.2572 45.6411 59.326 46.0388 58.5165C47.3462 55.794 50.1781 49.0258 49.4044 42.858C48.2943 34.0011 42.4697 22.2598 31.0874 26.5215C20.7395 30.3957 21.3892 42.6051 27.056 51.3319C30.1746 56.135 34.9039 59.3849 38.1027 60.5895C39.4386 61.072 40.424 62.2196 40.6973 63.6128C40.6981 63.6124 45.5233 88.2254 47.6587 99.1173Z" fill="#9D7149"/>
</svg>
