<svg width="262" height="195" viewBox="0 0 262 195" fill="none" xmlns="http://www.w3.org/2000/svg">
<g filter="url(#filter0_d_169_16)">
<mask id="path-1-outside-1_169_16" maskUnits="userSpaceOnUse" x="1" y="153" width="263" height="38" fill="black">
<rect fill="white" x="1" y="153" width="263" height="38"/>
<path d="M4.052 186V160.8H16.184C18.536 160.8 20.564 161.184 22.268 161.952C23.996 162.72 25.328 163.824 26.264 165.264C27.2 166.68 27.668 168.36 27.668 170.304C27.668 172.248 27.2 173.928 26.264 175.344C25.328 176.76 23.996 177.864 22.268 178.656C20.564 179.424 18.536 179.808 16.184 179.808H8.768L12.548 176.172V186H4.052ZM12.548 177.108L8.768 173.256H15.644C16.82 173.256 17.684 172.992 18.236 172.464C18.812 171.936 19.1 171.216 19.1 170.304C19.1 169.392 18.812 168.672 18.236 168.144C17.684 167.616 16.82 167.352 15.644 167.352H8.768L12.548 163.5V177.108ZM41.0743 186.36C38.6743 186.36 36.5743 185.916 34.7743 185.028C32.9983 184.14 31.6183 182.928 30.6343 181.392C29.6503 179.832 29.1583 178.08 29.1583 176.136C29.1583 174.144 29.6383 172.38 30.5983 170.844C31.5823 169.308 32.9143 168.108 34.5943 167.244C36.2983 166.38 38.2063 165.948 40.3183 165.948C42.2623 165.948 44.0503 166.332 45.6823 167.1C47.3383 167.868 48.6583 169.008 49.6423 170.52C50.6503 172.032 51.1543 173.904 51.1543 176.136C51.1543 176.424 51.1423 176.748 51.1183 177.108C51.0943 177.444 51.0703 177.756 51.0463 178.044H35.8903V174.12H46.7263L43.6663 175.164C43.6663 174.396 43.5223 173.748 43.2343 173.22C42.9703 172.668 42.5983 172.248 42.1183 171.96C41.6383 171.648 41.0623 171.492 40.3903 171.492C39.7183 171.492 39.1303 171.648 38.6263 171.96C38.1463 172.248 37.7743 172.668 37.5103 173.22C37.2463 173.748 37.1143 174.396 37.1143 175.164V176.388C37.1143 177.228 37.2823 177.948 37.6183 178.548C37.9543 179.148 38.4343 179.604 39.0583 179.916C39.6823 180.204 40.4383 180.348 41.3263 180.348C42.2383 180.348 42.9823 180.228 43.5583 179.988C44.1583 179.748 44.7823 179.388 45.4303 178.908L49.6783 183.192C48.7183 184.224 47.5303 185.016 46.1143 185.568C44.7223 186.096 43.0423 186.36 41.0743 186.36ZM64.3059 186.36C62.0499 186.36 60.0459 185.928 58.2939 185.064C56.5419 184.2 55.1619 183 54.1539 181.464C53.1699 179.904 52.6779 178.128 52.6779 176.136C52.6779 174.144 53.1699 172.38 54.1539 170.844C55.1619 169.308 56.5419 168.108 58.2939 167.244C60.0459 166.38 62.0499 165.948 64.3059 165.948C66.7059 165.948 68.7579 166.464 70.4619 167.496C72.1659 168.528 73.3419 169.956 73.9899 171.78L67.6899 174.876C67.2819 173.964 66.7779 173.304 66.1779 172.896C65.6019 172.488 64.9659 172.284 64.2699 172.284C63.6699 172.284 63.1059 172.428 62.5779 172.716C62.0739 173.004 61.6659 173.436 61.3539 174.012C61.0659 174.564 60.9219 175.272 60.9219 176.136C60.9219 177 61.0659 177.72 61.3539 178.296C61.6659 178.872 62.0739 179.304 62.5779 179.592C63.1059 179.88 63.6699 180.024 64.2699 180.024C64.9659 180.024 65.6019 179.82 66.1779 179.412C66.7779 179.004 67.2819 178.344 67.6899 177.432L73.9899 180.528C73.3419 182.352 72.1659 183.78 70.4619 184.812C68.7579 185.844 66.7059 186.36 64.3059 186.36ZM86.5665 186.36C84.1665 186.36 82.0665 185.916 80.2665 185.028C78.4905 184.14 77.1105 182.928 76.1265 181.392C75.1425 179.832 74.6505 178.08 74.6505 176.136C74.6505 174.144 75.1305 172.38 76.0905 170.844C77.0745 169.308 78.4065 168.108 80.0865 167.244C81.7905 166.38 83.6985 165.948 85.8105 165.948C87.7545 165.948 89.5425 166.332 91.1745 167.1C92.8305 167.868 94.1505 169.008 95.1345 170.52C96.1425 172.032 96.6465 173.904 96.6465 176.136C96.6465 176.424 96.6345 176.748 96.6105 177.108C96.5865 177.444 96.5625 177.756 96.5385 178.044H81.3825V174.12H92.2185L89.1585 175.164C89.1585 174.396 89.0145 173.748 88.7265 173.22C88.4625 172.668 88.0905 172.248 87.6105 171.96C87.1305 171.648 86.5545 171.492 85.8825 171.492C85.2105 171.492 84.6225 171.648 84.1185 171.96C83.6385 172.248 83.2665 172.668 83.0025 173.22C82.7385 173.748 82.6065 174.396 82.6065 175.164V176.388C82.6065 177.228 82.7745 177.948 83.1105 178.548C83.4465 179.148 83.9265 179.604 84.5505 179.916C85.1745 180.204 85.9305 180.348 86.8185 180.348C87.7305 180.348 88.4745 180.228 89.0505 179.988C89.6505 179.748 90.2745 179.388 90.9225 178.908L95.1705 183.192C94.2105 184.224 93.0225 185.016 91.6065 185.568C90.2145 186.096 88.5345 186.36 86.5665 186.36ZM99.2141 186V159.288H107.35V186H99.2141ZM122.001 186V160.8H134.133C136.485 160.8 138.513 161.184 140.217 161.952C141.945 162.72 143.277 163.824 144.213 165.264C145.149 166.68 145.617 168.36 145.617 170.304C145.617 172.248 145.149 173.928 144.213 175.344C143.277 176.76 141.945 177.864 140.217 178.656C138.513 179.424 136.485 179.808 134.133 179.808H126.717L130.497 176.172V186H122.001ZM130.497 177.108L126.717 173.256H133.593C134.769 173.256 135.633 172.992 136.185 172.464C136.761 171.936 137.049 171.216 137.049 170.304C137.049 169.392 136.761 168.672 136.185 168.144C135.633 167.616 134.769 167.352 133.593 167.352H126.717L130.497 163.5V177.108ZM148.503 186V166.308H156.639V186H148.503ZM152.571 164.724C151.083 164.724 149.895 164.328 149.007 163.536C148.119 162.744 147.675 161.76 147.675 160.584C147.675 159.408 148.119 158.424 149.007 157.632C149.895 156.84 151.083 156.444 152.571 156.444C154.059 156.444 155.247 156.816 156.135 157.56C157.023 158.304 157.467 159.264 157.467 160.44C157.467 161.688 157.023 162.72 156.135 163.536C155.247 164.328 154.059 164.724 152.571 164.724ZM173.925 165.948C175.437 165.948 176.805 166.26 178.029 166.884C179.253 167.484 180.213 168.432 180.909 169.728C181.629 171.024 181.989 172.704 181.989 174.768V186H173.853V176.172C173.853 174.948 173.637 174.084 173.205 173.58C172.773 173.052 172.185 172.788 171.441 172.788C170.889 172.788 170.373 172.92 169.893 173.184C169.437 173.424 169.065 173.832 168.777 174.408C168.513 174.984 168.381 175.764 168.381 176.748V186H160.245V166.308H167.985V172.068L166.437 170.412C167.205 168.924 168.237 167.808 169.533 167.064C170.853 166.32 172.317 165.948 173.925 165.948ZM196.458 186.36C194.202 186.36 192.198 185.928 190.446 185.064C188.694 184.2 187.314 183 186.306 181.464C185.322 179.904 184.83 178.128 184.83 176.136C184.83 174.144 185.322 172.38 186.306 170.844C187.314 169.308 188.694 168.108 190.446 167.244C192.198 166.38 194.202 165.948 196.458 165.948C198.858 165.948 200.91 166.464 202.614 167.496C204.318 168.528 205.494 169.956 206.142 171.78L199.842 174.876C199.434 173.964 198.93 173.304 198.33 172.896C197.754 172.488 197.118 172.284 196.422 172.284C195.822 172.284 195.258 172.428 194.73 172.716C194.226 173.004 193.818 173.436 193.506 174.012C193.218 174.564 193.074 175.272 193.074 176.136C193.074 177 193.218 177.72 193.506 178.296C193.818 178.872 194.226 179.304 194.73 179.592C195.258 179.88 195.822 180.024 196.422 180.024C197.118 180.024 197.754 179.82 198.33 179.412C198.93 179.004 199.434 178.344 199.842 177.432L206.142 180.528C205.494 182.352 204.318 183.78 202.614 184.812C200.91 185.844 198.858 186.36 196.458 186.36ZM216.231 186.36C214.671 186.36 213.255 186.048 211.983 185.424C210.735 184.776 209.751 183.78 209.031 182.436C208.311 181.068 207.951 179.316 207.951 177.18V166.308H216.087V175.776C216.087 177.168 216.315 178.14 216.771 178.692C217.227 179.244 217.851 179.52 218.643 179.52C219.123 179.52 219.567 179.4 219.975 179.16C220.407 178.896 220.755 178.476 221.019 177.9C221.283 177.3 221.415 176.52 221.415 175.56V166.308H229.551V186H221.811V180.312L223.359 181.86C222.663 183.396 221.667 184.536 220.371 185.28C219.099 186 217.719 186.36 216.231 186.36ZM239.963 182.76L240.143 173.184L246.947 166.308H256.559L247.559 175.74L243.491 179.016L239.963 182.76ZM233.159 186V159.288H241.295V186H233.159ZM247.379 186L241.979 179.16L246.983 173.004L257.207 186H247.379Z"/>
</mask>
<path d="M4.052 186V160.8H16.184C18.536 160.8 20.564 161.184 22.268 161.952C23.996 162.72 25.328 163.824 26.264 165.264C27.2 166.68 27.668 168.36 27.668 170.304C27.668 172.248 27.2 173.928 26.264 175.344C25.328 176.76 23.996 177.864 22.268 178.656C20.564 179.424 18.536 179.808 16.184 179.808H8.768L12.548 176.172V186H4.052ZM12.548 177.108L8.768 173.256H15.644C16.82 173.256 17.684 172.992 18.236 172.464C18.812 171.936 19.1 171.216 19.1 170.304C19.1 169.392 18.812 168.672 18.236 168.144C17.684 167.616 16.82 167.352 15.644 167.352H8.768L12.548 163.5V177.108ZM41.0743 186.36C38.6743 186.36 36.5743 185.916 34.7743 185.028C32.9983 184.14 31.6183 182.928 30.6343 181.392C29.6503 179.832 29.1583 178.08 29.1583 176.136C29.1583 174.144 29.6383 172.38 30.5983 170.844C31.5823 169.308 32.9143 168.108 34.5943 167.244C36.2983 166.38 38.2063 165.948 40.3183 165.948C42.2623 165.948 44.0503 166.332 45.6823 167.1C47.3383 167.868 48.6583 169.008 49.6423 170.52C50.6503 172.032 51.1543 173.904 51.1543 176.136C51.1543 176.424 51.1423 176.748 51.1183 177.108C51.0943 177.444 51.0703 177.756 51.0463 178.044H35.8903V174.12H46.7263L43.6663 175.164C43.6663 174.396 43.5223 173.748 43.2343 173.22C42.9703 172.668 42.5983 172.248 42.1183 171.96C41.6383 171.648 41.0623 171.492 40.3903 171.492C39.7183 171.492 39.1303 171.648 38.6263 171.96C38.1463 172.248 37.7743 172.668 37.5103 173.22C37.2463 173.748 37.1143 174.396 37.1143 175.164V176.388C37.1143 177.228 37.2823 177.948 37.6183 178.548C37.9543 179.148 38.4343 179.604 39.0583 179.916C39.6823 180.204 40.4383 180.348 41.3263 180.348C42.2383 180.348 42.9823 180.228 43.5583 179.988C44.1583 179.748 44.7823 179.388 45.4303 178.908L49.6783 183.192C48.7183 184.224 47.5303 185.016 46.1143 185.568C44.7223 186.096 43.0423 186.36 41.0743 186.36ZM64.3059 186.36C62.0499 186.36 60.0459 185.928 58.2939 185.064C56.5419 184.2 55.1619 183 54.1539 181.464C53.1699 179.904 52.6779 178.128 52.6779 176.136C52.6779 174.144 53.1699 172.38 54.1539 170.844C55.1619 169.308 56.5419 168.108 58.2939 167.244C60.0459 166.38 62.0499 165.948 64.3059 165.948C66.7059 165.948 68.7579 166.464 70.4619 167.496C72.1659 168.528 73.3419 169.956 73.9899 171.78L67.6899 174.876C67.2819 173.964 66.7779 173.304 66.1779 172.896C65.6019 172.488 64.9659 172.284 64.2699 172.284C63.6699 172.284 63.1059 172.428 62.5779 172.716C62.0739 173.004 61.6659 173.436 61.3539 174.012C61.0659 174.564 60.9219 175.272 60.9219 176.136C60.9219 177 61.0659 177.72 61.3539 178.296C61.6659 178.872 62.0739 179.304 62.5779 179.592C63.1059 179.88 63.6699 180.024 64.2699 180.024C64.9659 180.024 65.6019 179.82 66.1779 179.412C66.7779 179.004 67.2819 178.344 67.6899 177.432L73.9899 180.528C73.3419 182.352 72.1659 183.78 70.4619 184.812C68.7579 185.844 66.7059 186.36 64.3059 186.36ZM86.5665 186.36C84.1665 186.36 82.0665 185.916 80.2665 185.028C78.4905 184.14 77.1105 182.928 76.1265 181.392C75.1425 179.832 74.6505 178.08 74.6505 176.136C74.6505 174.144 75.1305 172.38 76.0905 170.844C77.0745 169.308 78.4065 168.108 80.0865 167.244C81.7905 166.38 83.6985 165.948 85.8105 165.948C87.7545 165.948 89.5425 166.332 91.1745 167.1C92.8305 167.868 94.1505 169.008 95.1345 170.52C96.1425 172.032 96.6465 173.904 96.6465 176.136C96.6465 176.424 96.6345 176.748 96.6105 177.108C96.5865 177.444 96.5625 177.756 96.5385 178.044H81.3825V174.12H92.2185L89.1585 175.164C89.1585 174.396 89.0145 173.748 88.7265 173.22C88.4625 172.668 88.0905 172.248 87.6105 171.96C87.1305 171.648 86.5545 171.492 85.8825 171.492C85.2105 171.492 84.6225 171.648 84.1185 171.96C83.6385 172.248 83.2665 172.668 83.0025 173.22C82.7385 173.748 82.6065 174.396 82.6065 175.164V176.388C82.6065 177.228 82.7745 177.948 83.1105 178.548C83.4465 179.148 83.9265 179.604 84.5505 179.916C85.1745 180.204 85.9305 180.348 86.8185 180.348C87.7305 180.348 88.4745 180.228 89.0505 179.988C89.6505 179.748 90.2745 179.388 90.9225 178.908L95.1705 183.192C94.2105 184.224 93.0225 185.016 91.6065 185.568C90.2145 186.096 88.5345 186.36 86.5665 186.36ZM99.2141 186V159.288H107.35V186H99.2141ZM122.001 186V160.8H134.133C136.485 160.8 138.513 161.184 140.217 161.952C141.945 162.72 143.277 163.824 144.213 165.264C145.149 166.68 145.617 168.36 145.617 170.304C145.617 172.248 145.149 173.928 144.213 175.344C143.277 176.76 141.945 177.864 140.217 178.656C138.513 179.424 136.485 179.808 134.133 179.808H126.717L130.497 176.172V186H122.001ZM130.497 177.108L126.717 173.256H133.593C134.769 173.256 135.633 172.992 136.185 172.464C136.761 171.936 137.049 171.216 137.049 170.304C137.049 169.392 136.761 168.672 136.185 168.144C135.633 167.616 134.769 167.352 133.593 167.352H126.717L130.497 163.5V177.108ZM148.503 186V166.308H156.639V186H148.503ZM152.571 164.724C151.083 164.724 149.895 164.328 149.007 163.536C148.119 162.744 147.675 161.76 147.675 160.584C147.675 159.408 148.119 158.424 149.007 157.632C149.895 156.84 151.083 156.444 152.571 156.444C154.059 156.444 155.247 156.816 156.135 157.56C157.023 158.304 157.467 159.264 157.467 160.44C157.467 161.688 157.023 162.72 156.135 163.536C155.247 164.328 154.059 164.724 152.571 164.724ZM173.925 165.948C175.437 165.948 176.805 166.26 178.029 166.884C179.253 167.484 180.213 168.432 180.909 169.728C181.629 171.024 181.989 172.704 181.989 174.768V186H173.853V176.172C173.853 174.948 173.637 174.084 173.205 173.58C172.773 173.052 172.185 172.788 171.441 172.788C170.889 172.788 170.373 172.92 169.893 173.184C169.437 173.424 169.065 173.832 168.777 174.408C168.513 174.984 168.381 175.764 168.381 176.748V186H160.245V166.308H167.985V172.068L166.437 170.412C167.205 168.924 168.237 167.808 169.533 167.064C170.853 166.32 172.317 165.948 173.925 165.948ZM196.458 186.36C194.202 186.36 192.198 185.928 190.446 185.064C188.694 184.2 187.314 183 186.306 181.464C185.322 179.904 184.83 178.128 184.83 176.136C184.83 174.144 185.322 172.38 186.306 170.844C187.314 169.308 188.694 168.108 190.446 167.244C192.198 166.38 194.202 165.948 196.458 165.948C198.858 165.948 200.91 166.464 202.614 167.496C204.318 168.528 205.494 169.956 206.142 171.78L199.842 174.876C199.434 173.964 198.93 173.304 198.33 172.896C197.754 172.488 197.118 172.284 196.422 172.284C195.822 172.284 195.258 172.428 194.73 172.716C194.226 173.004 193.818 173.436 193.506 174.012C193.218 174.564 193.074 175.272 193.074 176.136C193.074 177 193.218 177.72 193.506 178.296C193.818 178.872 194.226 179.304 194.73 179.592C195.258 179.88 195.822 180.024 196.422 180.024C197.118 180.024 197.754 179.82 198.33 179.412C198.93 179.004 199.434 178.344 199.842 177.432L206.142 180.528C205.494 182.352 204.318 183.78 202.614 184.812C200.91 185.844 198.858 186.36 196.458 186.36ZM216.231 186.36C214.671 186.36 213.255 186.048 211.983 185.424C210.735 184.776 209.751 183.78 209.031 182.436C208.311 181.068 207.951 179.316 207.951 177.18V166.308H216.087V175.776C216.087 177.168 216.315 178.14 216.771 178.692C217.227 179.244 217.851 179.52 218.643 179.52C219.123 179.52 219.567 179.4 219.975 179.16C220.407 178.896 220.755 178.476 221.019 177.9C221.283 177.3 221.415 176.52 221.415 175.56V166.308H229.551V186H221.811V180.312L223.359 181.86C222.663 183.396 221.667 184.536 220.371 185.28C219.099 186 217.719 186.36 216.231 186.36ZM239.963 182.76L240.143 173.184L246.947 166.308H256.559L247.559 175.74L243.491 179.016L239.963 182.76ZM233.159 186V159.288H241.295V186H233.159ZM247.379 186L241.979 179.16L246.983 173.004L257.207 186H247.379Z" fill="#FFEACE"/>
<path d="M4.052 186H1.052V189H4.052V186ZM4.052 160.8V157.8H1.052V160.8H4.052ZM22.268 161.952L21.0353 164.687L21.0424 164.69L21.0496 164.693L22.268 161.952ZM26.264 165.264L23.7487 166.899L23.755 166.909L23.7613 166.918L26.264 165.264ZM26.264 175.344L23.7613 173.69L23.7613 173.69L26.264 175.344ZM22.268 178.656L23.5007 181.391L23.5093 181.387L23.518 181.383L22.268 178.656ZM8.768 179.808L6.68826 177.646L1.32172 182.808H8.768V179.808ZM12.548 176.172H15.548V169.124L10.4683 174.01L12.548 176.172ZM12.548 186V189H15.548V186H12.548ZM12.548 177.108L10.4068 179.209L15.548 184.448V177.108H12.548ZM8.768 173.256V170.256H1.6209L6.62676 175.357L8.768 173.256ZM18.236 172.464L16.2088 170.253L16.1853 170.274L16.1623 170.296L18.236 172.464ZM18.236 168.144L16.1623 170.312L16.1853 170.334L16.2088 170.355L18.236 168.144ZM8.768 167.352L6.62676 165.251L1.6209 170.352H8.768V167.352ZM12.548 163.5H15.548V156.16L10.4068 161.399L12.548 163.5ZM7.052 186V160.8H1.052V186H7.052ZM4.052 163.8H16.184V157.8H4.052V163.8ZM16.184 163.8C18.2173 163.8 19.8052 164.133 21.0353 164.687L23.5007 159.217C21.3228 158.235 18.8547 157.8 16.184 157.8V163.8ZM21.0496 164.693C22.303 165.251 23.1605 165.994 23.7487 166.899L28.7793 163.629C27.4955 161.654 25.689 160.189 23.4864 159.211L21.0496 164.693ZM23.7613 166.918C24.3277 167.775 24.668 168.86 24.668 170.304H30.668C30.668 167.86 30.0723 165.585 28.7667 163.61L23.7613 166.918ZM24.668 170.304C24.668 171.748 24.3277 172.833 23.7613 173.69L28.7667 176.998C30.0723 175.023 30.668 172.748 30.668 170.304H24.668ZM23.7613 173.69C23.1705 174.584 22.2993 175.342 21.018 175.929L23.518 181.383C25.6927 180.386 27.4855 178.936 28.7667 176.998L23.7613 173.69ZM21.0353 175.921C19.8052 176.475 18.2173 176.808 16.184 176.808V182.808C18.8547 182.808 21.3228 182.373 23.5007 181.391L21.0353 175.921ZM16.184 176.808H8.768V182.808H16.184V176.808ZM10.8477 181.97L14.6277 178.334L10.4683 174.01L6.68826 177.646L10.8477 181.97ZM9.548 176.172V186H15.548V176.172H9.548ZM12.548 183H4.052V189H12.548V183ZM14.6892 175.007L10.9092 171.155L6.62676 175.357L10.4068 179.209L14.6892 175.007ZM8.768 176.256H15.644V170.256H8.768V176.256ZM15.644 176.256C17.1877 176.256 18.9629 175.92 20.3097 174.632L16.1623 170.296C16.2817 170.182 16.3625 170.169 16.2973 170.189C16.2202 170.213 16.0193 170.256 15.644 170.256V176.256ZM20.2632 174.675C21.5641 173.483 22.1 171.903 22.1 170.304H16.1C16.1 170.444 16.0782 170.465 16.0986 170.414C16.1084 170.389 16.1244 170.358 16.1474 170.324C16.1704 170.291 16.1929 170.267 16.2088 170.253L20.2632 174.675ZM22.1 170.304C22.1 168.705 21.5641 167.125 20.2632 165.933L16.2088 170.355C16.1929 170.341 16.1704 170.317 16.1474 170.284C16.1244 170.25 16.1084 170.219 16.0986 170.194C16.0782 170.143 16.1 170.164 16.1 170.304H22.1ZM20.3097 165.976C18.9629 164.688 17.1877 164.352 15.644 164.352V170.352C16.0193 170.352 16.2202 170.395 16.2973 170.419C16.3625 170.439 16.2817 170.426 16.1623 170.312L20.3097 165.976ZM15.644 164.352H8.768V170.352H15.644V164.352ZM10.9092 169.453L14.6892 165.601L10.4068 161.399L6.62676 165.251L10.9092 169.453ZM9.548 163.5V177.108H15.548V163.5H9.548ZM34.7743 185.028L33.4327 187.711L33.4399 187.715L33.4471 187.718L34.7743 185.028ZM30.6343 181.392L28.097 182.993L28.1026 183.001L28.1082 183.01L30.6343 181.392ZM30.5983 170.844L28.0722 169.226L28.0632 169.24L28.0543 169.254L30.5983 170.844ZM34.5943 167.244L33.2376 164.568L33.23 164.572L33.2223 164.576L34.5943 167.244ZM45.6823 167.1L44.405 169.814L44.4126 169.818L44.4202 169.822L45.6823 167.1ZM49.6423 170.52L47.1279 172.156L47.137 172.17L47.1462 172.184L49.6423 170.52ZM51.1183 177.108L54.1107 177.322L54.1112 177.315L54.1117 177.308L51.1183 177.108ZM51.0463 178.044V181.044H53.8067L54.036 178.293L51.0463 178.044ZM35.8903 178.044H32.8903V181.044H35.8903V178.044ZM35.8903 174.12V171.12H32.8903V174.12H35.8903ZM46.7263 174.12L47.695 176.959L46.7263 171.12V174.12ZM43.6663 175.164H40.6663V179.357L44.635 178.003L43.6663 175.164ZM43.2343 173.22L40.5279 174.514L40.5624 174.586L40.6007 174.657L43.2343 173.22ZM42.1183 171.96L40.4834 174.475L40.5286 174.505L40.5749 174.532L42.1183 171.96ZM38.6263 171.96L40.1698 174.532L40.1877 174.522L40.2054 174.511L38.6263 171.96ZM37.5103 173.22L40.1936 174.562L40.2054 174.538L40.2167 174.514L37.5103 173.22ZM37.6183 178.548L40.2359 177.082L40.2359 177.082L37.6183 178.548ZM39.0583 179.916L37.7167 182.599L37.7586 182.62L37.8012 182.64L39.0583 179.916ZM43.5583 179.988L42.4442 177.203L42.4243 177.211L42.4045 177.219L43.5583 179.988ZM45.4303 178.908L47.5606 176.796L45.7318 174.951L43.6447 176.497L45.4303 178.908ZM49.6783 183.192L51.8749 185.235L53.8374 183.126L51.8086 181.08L49.6783 183.192ZM46.1143 185.568L47.1783 188.373L47.1912 188.368L47.204 188.363L46.1143 185.568ZM41.0743 183.36C39.0455 183.36 37.4156 182.986 36.1016 182.338L33.4471 187.718C35.733 188.846 38.3032 189.36 41.0743 189.36V183.36ZM36.116 182.345C34.7793 181.676 33.8272 180.815 33.1604 179.774L28.1082 183.01C29.4095 185.041 31.2174 186.604 33.4327 187.711L36.116 182.345ZM33.1717 179.791C32.5066 178.737 32.1583 177.546 32.1583 176.136H26.1583C26.1583 178.614 26.7941 180.927 28.097 182.993L33.1717 179.791ZM32.1583 176.136C32.1583 174.648 32.5097 173.446 33.1423 172.434L28.0543 169.254C26.767 171.314 26.1583 173.64 26.1583 176.136H32.1583ZM33.1244 172.462C33.8126 171.388 34.7394 170.543 35.9664 169.912L33.2223 164.576C31.0893 165.673 29.3521 167.228 28.0722 169.226L33.1244 172.462ZM35.951 169.92C37.1918 169.291 38.6273 168.948 40.3183 168.948V162.948C37.7854 162.948 35.4049 163.469 33.2376 164.568L35.951 169.92ZM40.3183 168.948C41.8557 168.948 43.203 169.249 44.405 169.814L46.9597 164.386C44.8977 163.415 42.669 162.948 40.3183 162.948V168.948ZM44.4202 169.822C45.5716 170.356 46.455 171.122 47.1279 172.156L52.1568 168.884C50.8617 166.894 49.1051 165.38 46.9445 164.378L44.4202 169.822ZM47.1462 172.184C47.7575 173.101 48.1543 174.36 48.1543 176.136H54.1543C54.1543 173.448 53.5432 170.963 52.1385 168.856L47.1462 172.184ZM48.1543 176.136C48.1543 176.343 48.1456 176.599 48.125 176.908L54.1117 177.308C54.1391 176.897 54.1543 176.505 54.1543 176.136H48.1543ZM48.126 176.894C48.1027 177.22 48.0796 177.52 48.0567 177.795L54.036 178.293C54.0611 177.992 54.086 177.668 54.1107 177.322L48.126 176.894ZM51.0463 175.044H35.8903V181.044H51.0463V175.044ZM38.8903 178.044V174.12H32.8903V178.044H38.8903ZM35.8903 177.12H46.7263V171.12H35.8903V177.12ZM45.7576 171.281L42.6976 172.325L44.635 178.003L47.695 176.959L45.7576 171.281ZM46.6663 175.164C46.6663 174.03 46.4539 172.858 45.868 171.783L40.6007 174.657C40.5907 174.638 40.6663 174.762 40.6663 175.164H46.6663ZM45.9407 171.926C45.4475 170.894 44.6933 170.006 43.6618 169.388L40.5749 174.532C40.5651 174.527 40.5532 174.518 40.5407 174.508C40.5283 174.498 40.5185 174.488 40.5116 174.48C40.5048 174.472 40.5031 174.469 40.5057 174.473C40.5084 174.477 40.5164 174.49 40.5279 174.514L45.9407 171.926ZM43.7533 169.445C42.7071 168.765 41.5399 168.492 40.3903 168.492V174.492C40.4942 174.492 40.5396 174.504 40.5421 174.505C40.5435 174.505 40.537 174.503 40.5248 174.498C40.5125 174.492 40.4981 174.485 40.4834 174.475L43.7533 169.445ZM40.3903 168.492C39.2369 168.492 38.0867 168.766 37.0473 169.409L40.2054 174.511C40.1996 174.514 40.1987 174.513 40.2146 174.509C40.233 174.504 40.2872 174.492 40.3903 174.492V168.492ZM37.0829 169.388C36.0514 170.006 35.2972 170.894 34.8039 171.926L40.2167 174.514C40.2283 174.49 40.2362 174.477 40.239 174.473C40.2416 174.469 40.2399 174.472 40.2331 174.48C40.2262 174.488 40.2164 174.498 40.2039 174.508C40.1915 174.518 40.1796 174.527 40.1698 174.532L37.0829 169.388ZM34.8271 171.878C34.3018 172.929 34.1143 174.065 34.1143 175.164H40.1143C40.1143 174.727 40.1909 174.567 40.1936 174.562L34.8271 171.878ZM34.1143 175.164V176.388H40.1143V175.164H34.1143ZM34.1143 176.388C34.1143 177.628 34.3641 178.877 35.0008 180.014L40.2359 177.082C40.2006 177.019 40.1143 176.828 40.1143 176.388H34.1143ZM35.0008 180.014C35.6351 181.146 36.5634 182.023 37.7167 182.599L40.4 177.233C40.3053 177.185 40.2736 177.15 40.2359 177.082L35.0008 180.014ZM37.8012 182.64C38.9167 183.155 40.1261 183.348 41.3263 183.348V177.348C40.7506 177.348 40.448 177.253 40.3155 177.192L37.8012 182.64ZM41.3263 183.348C42.4672 183.348 43.6427 183.203 44.7122 182.757L42.4045 177.219C42.322 177.253 42.0095 177.348 41.3263 177.348V183.348ZM44.6725 182.773C45.5619 182.418 46.4099 181.916 47.216 181.319L43.6447 176.497C43.1548 176.86 42.7548 177.078 42.4442 177.203L44.6725 182.773ZM43.3001 181.02L47.5481 185.304L51.8086 181.08L47.5606 176.796L43.3001 181.02ZM47.4818 181.149C46.8531 181.825 46.0534 182.372 45.0247 182.773L47.204 188.363C49.0073 187.66 50.5836 186.623 51.8749 185.235L47.4818 181.149ZM45.0504 182.763C44.0882 183.128 42.7893 183.36 41.0743 183.36V189.36C43.2954 189.36 45.3565 189.064 47.1783 188.373L45.0504 182.763ZM58.2939 185.064L56.967 187.755L58.2939 185.064ZM54.1539 181.464L51.6165 183.065L51.6309 183.087L51.6457 183.11L54.1539 181.464ZM54.1539 170.844L51.6457 169.198L51.6367 169.212L51.6278 169.226L54.1539 170.844ZM70.4619 167.496L68.9078 170.062L68.9078 170.062L70.4619 167.496ZM73.9899 171.78L75.313 174.472L77.7114 173.294L76.8168 170.776L73.9899 171.78ZM67.6899 174.876L64.9514 176.101L66.2216 178.94L69.013 177.568L67.6899 174.876ZM66.1779 172.896L64.4438 175.344L64.4672 175.361L64.4909 175.377L66.1779 172.896ZM62.5779 172.716L61.1413 170.082L61.1152 170.097L61.0895 170.111L62.5779 172.716ZM61.3539 174.012L58.716 172.583L58.7049 172.604L58.6941 172.624L61.3539 174.012ZM61.3539 178.296L58.6706 179.638L58.6926 179.682L58.716 179.725L61.3539 178.296ZM62.5779 179.592L61.0895 182.197L61.1152 182.211L61.1413 182.226L62.5779 179.592ZM66.1779 179.412L64.4909 176.931L64.4672 176.947L64.4438 176.964L66.1779 179.412ZM67.6899 177.432L69.013 174.74L66.2216 173.368L64.9514 176.207L67.6899 177.432ZM73.9899 180.528L76.8168 181.532L77.7114 179.014L75.313 177.836L73.9899 180.528ZM70.4619 184.812L72.016 187.378L72.016 187.378L70.4619 184.812ZM64.3059 183.36C62.4387 183.36 60.9005 183.005 59.6208 182.373L56.967 187.755C59.1912 188.851 61.661 189.36 64.3059 189.36V183.36ZM59.6208 182.373C58.3171 181.73 57.3578 180.878 56.662 179.818L51.6457 183.11C52.966 185.122 54.7667 186.67 56.967 187.755L59.6208 182.373ZM56.6913 179.863C56.0337 178.821 55.6779 177.609 55.6779 176.136H49.6779C49.6779 178.647 50.306 180.987 51.6165 183.065L56.6913 179.863ZM55.6779 176.136C55.6779 174.663 56.0337 173.471 56.68 172.462L51.6278 169.226C50.306 171.289 49.6779 173.625 49.6779 176.136H55.6779ZM56.662 172.49C57.3578 171.43 58.3171 170.578 59.6208 169.935L56.967 164.553C54.7667 165.638 52.966 167.186 51.6457 169.198L56.662 172.49ZM59.6208 169.935C60.9005 169.303 62.4387 168.948 64.3059 168.948V162.948C61.661 162.948 59.1912 163.457 56.967 164.553L59.6208 169.935ZM64.3059 168.948C66.2706 168.948 67.7603 169.367 68.9078 170.062L72.016 164.93C69.7555 163.561 67.1412 162.948 64.3059 162.948V168.948ZM68.9078 170.062C70.0389 170.747 70.7537 171.632 71.163 172.784L76.8168 170.776C75.93 168.28 74.2929 166.309 72.016 164.93L68.9078 170.062ZM72.6667 169.088L66.3667 172.184L69.013 177.568L75.313 174.472L72.6667 169.088ZM70.4283 173.651C69.8755 172.415 69.0673 171.233 67.8648 170.415L64.4909 175.377C64.4911 175.377 64.4939 175.379 64.4993 175.383C64.5047 175.388 64.513 175.395 64.524 175.405C64.546 175.427 64.5793 175.462 64.6216 175.518C64.7079 175.631 64.8236 175.815 64.9514 176.101L70.4283 173.651ZM67.9119 170.448C66.8367 169.686 65.5965 169.284 64.2699 169.284V175.284C64.32 175.284 64.343 175.291 64.3526 175.294C64.3625 175.297 64.3917 175.307 64.4438 175.344L67.9119 170.448ZM64.2699 169.284C63.1667 169.284 62.1089 169.555 61.1413 170.082L64.0144 175.35C64.1029 175.301 64.1731 175.284 64.2699 175.284V169.284ZM61.0895 170.111C60.04 170.711 59.2591 171.581 58.716 172.583L63.9918 175.441C64.0361 175.359 64.0672 175.324 64.0749 175.316C64.081 175.309 64.0768 175.315 64.0663 175.321L61.0895 170.111ZM58.6941 172.624C58.113 173.738 57.9219 174.966 57.9219 176.136H63.9219C63.9219 175.578 64.0188 175.39 64.0136 175.4L58.6941 172.624ZM57.9219 176.136C57.9219 177.314 58.1157 178.528 58.6706 179.638L64.0372 176.954C64.0161 176.912 63.9219 176.686 63.9219 176.136H57.9219ZM58.716 179.725C59.2591 180.727 60.04 181.597 61.0895 182.197L64.0663 176.987C64.0768 176.993 64.081 176.999 64.0749 176.992C64.0672 176.984 64.0361 176.949 63.9918 176.867L58.716 179.725ZM61.1413 182.226C62.1089 182.753 63.1667 183.024 64.2699 183.024V177.024C64.1731 177.024 64.1029 177.007 64.0144 176.958L61.1413 182.226ZM64.2699 183.024C65.5965 183.024 66.8367 182.622 67.9119 181.86L64.4438 176.964C64.3917 177.001 64.3625 177.011 64.3526 177.014C64.343 177.017 64.32 177.024 64.2699 177.024V183.024ZM67.8648 181.893C69.0673 181.075 69.8755 179.893 70.4283 178.657L64.9514 176.207C64.8236 176.493 64.7079 176.677 64.6216 176.79C64.5793 176.846 64.546 176.881 64.524 176.903C64.513 176.913 64.5047 176.92 64.4993 176.925C64.4939 176.929 64.4911 176.931 64.4909 176.931L67.8648 181.893ZM66.3667 180.124L72.6667 183.22L75.313 177.836L69.013 174.74L66.3667 180.124ZM71.163 179.524C70.7537 180.676 70.0389 181.561 68.9078 182.246L72.016 187.378C74.2929 185.999 75.93 184.028 76.8168 181.532L71.163 179.524ZM68.9078 182.246C67.7603 182.941 66.2706 183.36 64.3059 183.36V189.36C67.1412 189.36 69.7555 188.747 72.016 187.378L68.9078 182.246ZM80.2665 185.028L78.9249 187.711L78.9321 187.715L78.9393 187.718L80.2665 185.028ZM76.1265 181.392L73.5891 182.993L73.5948 183.001L73.6004 183.01L76.1265 181.392ZM76.0905 170.844L73.5644 169.226L73.5554 169.24L73.5465 169.254L76.0905 170.844ZM80.0865 167.244L78.7298 164.568L78.7222 164.572L78.7145 164.576L80.0865 167.244ZM91.1745 167.1L89.8971 169.814L89.9047 169.818L89.9124 169.822L91.1745 167.1ZM95.1345 170.52L92.6201 172.156L92.6292 172.17L92.6384 172.184L95.1345 170.52ZM96.6105 177.108L99.6029 177.322L99.6034 177.315L99.6039 177.308L96.6105 177.108ZM96.5385 178.044V181.044H99.2989L99.5282 178.293L96.5385 178.044ZM81.3825 178.044H78.3825V181.044H81.3825V178.044ZM81.3825 174.12V171.12H78.3825V174.12H81.3825ZM92.2185 174.12L93.1872 176.959L92.2185 171.12V174.12ZM89.1585 175.164H86.1585V179.357L90.1272 178.003L89.1585 175.164ZM88.7265 173.22L86.0201 174.514L86.0546 174.586L86.0928 174.657L88.7265 173.22ZM87.6105 171.96L85.9756 174.475L86.0208 174.505L86.067 174.532L87.6105 171.96ZM84.1185 171.96L85.662 174.532L85.6799 174.522L85.6976 174.511L84.1185 171.96ZM83.0025 173.22L85.6858 174.562L85.6976 174.538L85.7089 174.514L83.0025 173.22ZM83.1105 178.548L85.728 177.082L85.728 177.082L83.1105 178.548ZM84.5505 179.916L83.2089 182.599L83.2508 182.62L83.2934 182.64L84.5505 179.916ZM89.0505 179.988L87.9364 177.203L87.9165 177.211L87.8967 177.219L89.0505 179.988ZM90.9225 178.908L93.0528 176.796L91.224 174.951L89.1368 176.497L90.9225 178.908ZM95.1705 183.192L97.3671 185.235L99.3296 183.126L97.3008 181.08L95.1705 183.192ZM91.6065 185.568L92.6705 188.373L92.6833 188.368L92.6962 188.363L91.6065 185.568ZM86.5665 183.36C84.5377 183.36 82.9078 182.986 81.5938 182.338L78.9393 187.718C81.2252 188.846 83.7954 189.36 86.5665 189.36V183.36ZM81.6082 182.345C80.2715 181.676 79.3194 180.815 78.6526 179.774L73.6004 183.01C74.9016 185.041 76.7095 186.604 78.9249 187.711L81.6082 182.345ZM78.6639 179.791C77.9988 178.737 77.6505 177.546 77.6505 176.136H71.6505C71.6505 178.614 72.2863 180.927 73.5891 182.993L78.6639 179.791ZM77.6505 176.136C77.6505 174.648 78.0019 173.446 78.6345 172.434L73.5465 169.254C72.2592 171.314 71.6505 173.64 71.6505 176.136H77.6505ZM78.6166 172.462C79.3048 171.388 80.2316 170.543 81.4586 169.912L78.7145 164.576C76.5815 165.673 74.8443 167.228 73.5644 169.226L78.6166 172.462ZM81.4432 169.92C82.6839 169.291 84.1195 168.948 85.8105 168.948V162.948C83.2776 162.948 80.8971 163.469 78.7298 164.568L81.4432 169.92ZM85.8105 168.948C87.3479 168.948 88.6952 169.249 89.8971 169.814L92.4519 164.386C90.3899 163.415 88.1612 162.948 85.8105 162.948V168.948ZM89.9124 169.822C91.0638 170.356 91.9472 171.122 92.6201 172.156L97.649 168.884C96.3539 166.894 94.5973 165.38 92.4367 164.378L89.9124 169.822ZM92.6384 172.184C93.2497 173.101 93.6465 174.36 93.6465 176.136H99.6465C99.6465 173.448 99.0354 170.963 97.6307 168.856L92.6384 172.184ZM93.6465 176.136C93.6465 176.343 93.6378 176.599 93.6172 176.908L99.6039 177.308C99.6313 176.897 99.6465 176.505 99.6465 176.136H93.6465ZM93.6182 176.894C93.5949 177.22 93.5718 177.52 93.5489 177.795L99.5282 178.293C99.5533 177.992 99.5782 177.668 99.6029 177.322L93.6182 176.894ZM96.5385 175.044H81.3825V181.044H96.5385V175.044ZM84.3825 178.044V174.12H78.3825V178.044H84.3825ZM81.3825 177.12H92.2185V171.12H81.3825V177.12ZM91.2498 171.281L88.1898 172.325L90.1272 178.003L93.1872 176.959L91.2498 171.281ZM92.1585 175.164C92.1585 174.03 91.9461 172.858 91.3602 171.783L86.0928 174.657C86.0829 174.638 86.1585 174.762 86.1585 175.164H92.1585ZM91.4329 171.926C90.9397 170.894 90.1855 170.006 89.154 169.388L86.067 174.532C86.0572 174.527 86.0454 174.518 86.0329 174.508C86.0205 174.498 86.0107 174.488 86.0038 174.48C85.997 174.472 85.9953 174.469 85.9979 174.473C86.0006 174.477 86.0086 174.49 86.0201 174.514L91.4329 171.926ZM89.2455 169.445C88.1993 168.765 87.0321 168.492 85.8825 168.492V174.492C85.9864 174.492 86.0318 174.504 86.0343 174.505C86.0357 174.505 86.0292 174.503 86.017 174.498C86.0047 174.492 85.9903 174.485 85.9756 174.475L89.2455 169.445ZM85.8825 168.492C84.7291 168.492 83.5789 168.766 82.5395 169.409L85.6976 174.511C85.6917 174.514 85.6909 174.513 85.7068 174.509C85.7252 174.504 85.7794 174.492 85.8825 174.492V168.492ZM82.575 169.388C81.5436 170.006 80.7894 170.894 80.2961 171.926L85.7089 174.514C85.7204 174.49 85.7284 174.477 85.7311 174.473C85.7338 174.469 85.7321 174.472 85.7253 174.48C85.7184 174.488 85.7086 174.498 85.6961 174.508C85.6837 174.518 85.6718 174.527 85.662 174.532L82.575 169.388ZM80.3193 171.878C79.7939 172.929 79.6065 174.065 79.6065 175.164H85.6065C85.6065 174.727 85.6831 174.567 85.6858 174.562L80.3193 171.878ZM79.6065 175.164V176.388H85.6065V175.164H79.6065ZM79.6065 176.388C79.6065 177.628 79.8563 178.877 80.493 180.014L85.728 177.082C85.6928 177.019 85.6065 176.828 85.6065 176.388H79.6065ZM80.493 180.014C81.1272 181.146 82.0555 182.023 83.2089 182.599L85.8922 177.233C85.7975 177.185 85.7658 177.15 85.728 177.082L80.493 180.014ZM83.2934 182.64C84.4089 183.155 85.6183 183.348 86.8185 183.348V177.348C86.2428 177.348 85.9402 177.253 85.8077 177.192L83.2934 182.64ZM86.8185 183.348C87.9594 183.348 89.1349 183.203 90.2044 182.757L87.8967 177.219C87.8142 177.253 87.5016 177.348 86.8185 177.348V183.348ZM90.1647 182.773C91.0541 182.418 91.9021 181.916 92.7082 181.319L89.1368 176.497C88.647 176.86 88.247 177.078 87.9364 177.203L90.1647 182.773ZM88.7923 181.02L93.0403 185.304L97.3008 181.08L93.0528 176.796L88.7923 181.02ZM92.974 181.149C92.3453 181.825 91.5456 182.372 90.5169 182.773L92.6962 188.363C94.4995 187.66 96.0758 186.623 97.3671 185.235L92.974 181.149ZM90.5426 182.763C89.5804 183.128 88.2814 183.36 86.5665 183.36V189.36C88.7876 189.36 90.8487 189.064 92.6705 188.373L90.5426 182.763ZM99.2141 186H96.2141V189H99.2141V186ZM99.2141 159.288V156.288H96.2141V159.288H99.2141ZM107.35 159.288H110.35V156.288H107.35V159.288ZM107.35 186V189H110.35V186H107.35ZM102.214 186V159.288H96.2141V186H102.214ZM99.2141 162.288H107.35V156.288H99.2141V162.288ZM104.35 159.288V186H110.35V159.288H104.35ZM107.35 183H99.2141V189H107.35V183ZM122.001 186H119.001V189H122.001V186ZM122.001 160.8V157.8H119.001V160.8H122.001ZM140.217 161.952L138.985 164.687L138.992 164.69L138.999 164.693L140.217 161.952ZM144.213 165.264L141.698 166.899L141.704 166.909L141.711 166.918L144.213 165.264ZM144.213 175.344L141.711 173.69L141.711 173.69L144.213 175.344ZM140.217 178.656L141.45 181.391L141.459 181.387L141.467 181.383L140.217 178.656ZM126.717 179.808L124.637 177.646L119.271 182.808H126.717V179.808ZM130.497 176.172H133.497V169.124L128.417 174.01L130.497 176.172ZM130.497 186V189H133.497V186H130.497ZM130.497 177.108L128.356 179.209L133.497 184.448V177.108H130.497ZM126.717 173.256V170.256H119.57L124.576 175.357L126.717 173.256ZM136.185 172.464L134.158 170.253L134.135 170.274L134.112 170.296L136.185 172.464ZM136.185 168.144L134.112 170.312L134.135 170.334L134.158 170.355L136.185 168.144ZM126.717 167.352L124.576 165.251L119.57 170.352H126.717V167.352ZM130.497 163.5H133.497V156.16L128.356 161.399L130.497 163.5ZM125.001 186V160.8H119.001V186H125.001ZM122.001 163.8H134.133V157.8H122.001V163.8ZM134.133 163.8C136.167 163.8 137.754 164.133 138.985 164.687L141.45 159.217C139.272 158.235 136.804 157.8 134.133 157.8V163.8ZM138.999 164.693C140.252 165.251 141.11 165.994 141.698 166.899L146.729 163.629C145.445 161.654 143.638 160.189 141.436 159.211L138.999 164.693ZM141.711 166.918C142.277 167.775 142.617 168.86 142.617 170.304H148.617C148.617 167.86 148.022 165.585 146.716 163.61L141.711 166.918ZM142.617 170.304C142.617 171.748 142.277 172.833 141.711 173.69L146.716 176.998C148.022 175.023 148.617 172.748 148.617 170.304H142.617ZM141.711 173.69C141.12 174.584 140.249 175.342 138.967 175.929L141.467 181.383C143.642 180.386 145.435 178.936 146.716 176.998L141.711 173.69ZM138.985 175.921C137.754 176.475 136.167 176.808 134.133 176.808V182.808C136.804 182.808 139.272 182.373 141.45 181.391L138.985 175.921ZM134.133 176.808H126.717V182.808H134.133V176.808ZM128.797 181.97L132.577 178.334L128.417 174.01L124.637 177.646L128.797 181.97ZM127.497 176.172V186H133.497V176.172H127.497ZM130.497 183H122.001V189H130.497V183ZM132.638 175.007L128.858 171.155L124.576 175.357L128.356 179.209L132.638 175.007ZM126.717 176.256H133.593V170.256H126.717V176.256ZM133.593 176.256C135.137 176.256 136.912 175.92 138.259 174.632L134.112 170.296C134.231 170.182 134.312 170.169 134.247 170.189C134.169 170.213 133.968 170.256 133.593 170.256V176.256ZM138.212 174.675C139.513 173.483 140.049 171.903 140.049 170.304H134.049C134.049 170.444 134.027 170.465 134.048 170.414C134.058 170.389 134.074 170.358 134.097 170.324C134.12 170.291 134.142 170.267 134.158 170.253L138.212 174.675ZM140.049 170.304C140.049 168.705 139.513 167.125 138.212 165.933L134.158 170.355C134.142 170.341 134.12 170.317 134.097 170.284C134.074 170.25 134.058 170.219 134.048 170.194C134.027 170.143 134.049 170.164 134.049 170.304H140.049ZM138.259 165.976C136.912 164.688 135.137 164.352 133.593 164.352V170.352C133.968 170.352 134.169 170.395 134.247 170.419C134.312 170.439 134.231 170.426 134.112 170.312L138.259 165.976ZM133.593 164.352H126.717V170.352H133.593V164.352ZM128.858 169.453L132.638 165.601L128.356 161.399L124.576 165.251L128.858 169.453ZM127.497 163.5V177.108H133.497V163.5H127.497ZM148.503 186H145.503V189H148.503V186ZM148.503 166.308V163.308H145.503V166.308H148.503ZM156.639 166.308H159.639V163.308H156.639V166.308ZM156.639 186V189H159.639V186H156.639ZM149.007 163.536L151.004 161.297L151.004 161.297L149.007 163.536ZM149.007 157.632L151.004 159.871L151.004 159.871L149.007 157.632ZM156.135 157.56L154.208 159.86L154.208 159.86L156.135 157.56ZM156.135 163.536L158.132 165.775L158.149 165.76L158.165 165.745L156.135 163.536ZM151.503 186V166.308H145.503V186H151.503ZM148.503 169.308H156.639V163.308H148.503V169.308ZM153.639 166.308V186H159.639V166.308H153.639ZM156.639 183H148.503V189H156.639V183ZM152.571 161.724C151.628 161.724 151.214 161.485 151.004 161.297L147.01 165.775C148.576 167.171 150.538 167.724 152.571 167.724V161.724ZM151.004 161.297C150.746 161.067 150.675 160.893 150.675 160.584H144.675C144.675 162.627 145.493 164.421 147.01 165.775L151.004 161.297ZM150.675 160.584C150.675 160.275 150.746 160.101 151.004 159.871L147.01 155.393C145.493 156.747 144.675 158.541 144.675 160.584H150.675ZM151.004 159.871C151.214 159.683 151.628 159.444 152.571 159.444V153.444C150.538 153.444 148.576 153.997 147.01 155.393L151.004 159.871ZM152.571 159.444C153.559 159.444 153.999 159.684 154.208 159.86L158.062 155.26C156.495 153.948 154.559 153.444 152.571 153.444V159.444ZM154.208 159.86C154.404 160.024 154.467 160.136 154.467 160.44H160.467C160.467 158.392 159.642 156.584 158.062 155.26L154.208 159.86ZM154.467 160.44C154.467 160.881 154.351 161.101 154.105 161.327L158.165 165.745C159.695 164.339 160.467 162.495 160.467 160.44H154.467ZM154.138 161.297C153.928 161.485 153.514 161.724 152.571 161.724V167.724C154.604 167.724 156.566 167.171 158.132 165.775L154.138 161.297ZM178.029 166.884L176.667 169.557L176.688 169.567L176.709 169.578L178.029 166.884ZM180.909 169.728L178.266 171.147L178.276 171.166L178.287 171.185L180.909 169.728ZM181.989 186V189H184.989V186H181.989ZM173.853 186H170.853V189H173.853V186ZM173.205 173.58L170.883 175.48L170.905 175.506L170.928 175.532L173.205 173.58ZM169.893 173.184L171.291 175.839L171.315 175.826L171.339 175.813L169.893 173.184ZM168.777 174.408L166.094 173.066L166.071 173.112L166.05 173.158L168.777 174.408ZM168.381 186V189H171.381V186H168.381ZM160.245 186H157.245V189H160.245V186ZM160.245 166.308V163.308H157.245V166.308H160.245ZM167.985 166.308H170.985V163.308H167.985V166.308ZM167.985 172.068L165.794 174.117L170.985 179.67V172.068H167.985ZM166.437 170.412L163.771 169.036L162.801 170.916L164.246 172.461L166.437 170.412ZM169.533 167.064L168.06 164.451L168.05 164.456L168.04 164.462L169.533 167.064ZM173.925 168.948C175.012 168.948 175.906 169.169 176.667 169.557L179.392 164.211C177.705 163.351 175.863 162.948 173.925 162.948V168.948ZM176.709 169.578C177.324 169.879 177.842 170.358 178.266 171.147L183.552 168.309C182.584 166.506 181.182 165.089 179.35 164.19L176.709 169.578ZM178.287 171.185C178.681 171.895 178.989 173.024 178.989 174.768H184.989C184.989 172.384 184.578 170.153 183.532 168.271L178.287 171.185ZM178.989 174.768V186H184.989V174.768H178.989ZM181.989 183H173.853V189H181.989V183ZM176.853 186V176.172H170.853V186H176.853ZM176.853 176.172C176.853 174.766 176.639 172.976 175.483 171.628L170.928 175.532C170.755 175.331 170.749 175.206 170.781 175.334C170.812 175.458 170.853 175.721 170.853 176.172H176.853ZM175.527 171.68C174.469 170.387 172.992 169.788 171.441 169.788V175.788C171.455 175.788 171.359 175.789 171.212 175.723C171.056 175.653 170.944 175.554 170.883 175.48L175.527 171.68ZM171.441 169.788C170.388 169.788 169.374 170.046 168.448 170.555L171.339 175.813C171.373 175.794 171.391 175.788 171.441 175.788V169.788ZM168.496 170.529C167.359 171.128 166.592 172.07 166.094 173.066L171.461 175.75C171.501 175.669 171.517 175.661 171.489 175.691C171.458 175.726 171.392 175.785 171.291 175.839L168.496 170.529ZM166.05 173.158C165.535 174.283 165.381 175.547 165.381 176.748H171.381C171.381 176.385 171.406 176.116 171.438 175.926C171.471 175.733 171.505 175.657 171.505 175.658L166.05 173.158ZM165.381 176.748V186H171.381V176.748H165.381ZM168.381 183H160.245V189H168.381V183ZM163.245 186V166.308H157.245V186H163.245ZM160.245 169.308H167.985V163.308H160.245V169.308ZM164.985 166.308V172.068H170.985V166.308H164.985ZM170.177 170.019L168.629 168.363L164.246 172.461L165.794 174.117L170.177 170.019ZM169.103 171.788C169.639 170.749 170.29 170.089 171.027 169.666L168.04 164.462C166.184 165.527 164.771 167.099 163.771 169.036L169.103 171.788ZM171.006 169.677C171.849 169.202 172.801 168.948 173.925 168.948V162.948C171.834 162.948 169.858 163.438 168.06 164.451L171.006 169.677ZM190.446 185.064L189.119 187.755L190.446 185.064ZM186.306 181.464L183.769 183.065L183.783 183.087L183.798 183.11L186.306 181.464ZM186.306 170.844L183.798 169.198L183.789 169.212L183.78 169.226L186.306 170.844ZM202.614 167.496L201.06 170.062L201.06 170.062L202.614 167.496ZM206.142 171.78L207.465 174.472L209.864 173.294L208.969 170.776L206.142 171.78ZM199.842 174.876L197.104 176.101L198.374 178.94L201.165 177.568L199.842 174.876ZM198.33 172.896L196.596 175.344L196.62 175.361L196.643 175.377L198.33 172.896ZM194.73 172.716L193.294 170.082L193.268 170.097L193.242 170.111L194.73 172.716ZM193.506 174.012L190.868 172.583L190.857 172.604L190.846 172.624L193.506 174.012ZM193.506 178.296L190.823 179.638L190.845 179.682L190.868 179.725L193.506 178.296ZM194.73 179.592L193.242 182.197L193.268 182.211L193.294 182.226L194.73 179.592ZM198.33 179.412L196.643 176.931L196.62 176.947L196.596 176.964L198.33 179.412ZM199.842 177.432L201.165 174.74L198.374 173.368L197.104 176.207L199.842 177.432ZM206.142 180.528L208.969 181.532L209.864 179.014L207.465 177.836L206.142 180.528ZM202.614 184.812L204.168 187.378L204.168 187.378L202.614 184.812ZM196.458 183.36C194.591 183.36 193.053 183.005 191.773 182.373L189.119 187.755C191.344 188.851 193.813 189.36 196.458 189.36V183.36ZM191.773 182.373C190.469 181.73 189.51 180.878 188.814 179.818L183.798 183.11C185.118 185.122 186.919 186.67 189.119 187.755L191.773 182.373ZM188.844 179.863C188.186 178.821 187.83 177.609 187.83 176.136H181.83C181.83 178.647 182.458 180.987 183.769 183.065L188.844 179.863ZM187.83 176.136C187.83 174.663 188.186 173.471 188.832 172.462L183.78 169.226C182.458 171.289 181.83 173.625 181.83 176.136H187.83ZM188.814 172.49C189.51 171.43 190.469 170.578 191.773 169.935L189.119 164.553C186.919 165.638 185.118 167.186 183.798 169.198L188.814 172.49ZM191.773 169.935C193.053 169.303 194.591 168.948 196.458 168.948V162.948C193.813 162.948 191.344 163.457 189.119 164.553L191.773 169.935ZM196.458 168.948C198.423 168.948 199.913 169.367 201.06 170.062L204.168 164.93C201.908 163.561 199.294 162.948 196.458 162.948V168.948ZM201.06 170.062C202.191 170.747 202.906 171.632 203.315 172.784L208.969 170.776C208.082 168.28 206.445 166.309 204.168 164.93L201.06 170.062ZM204.819 169.088L198.519 172.184L201.165 177.568L207.465 174.472L204.819 169.088ZM202.581 173.651C202.028 172.415 201.22 171.233 200.017 170.415L196.643 175.377C196.643 175.377 196.646 175.379 196.652 175.383C196.657 175.388 196.665 175.395 196.676 175.405C196.698 175.427 196.732 175.462 196.774 175.518C196.86 175.631 196.976 175.815 197.104 176.101L202.581 173.651ZM200.064 170.448C198.989 169.686 197.749 169.284 196.422 169.284V175.284C196.472 175.284 196.495 175.291 196.505 175.294C196.515 175.297 196.544 175.307 196.596 175.344L200.064 170.448ZM196.422 169.284C195.319 169.284 194.261 169.555 193.294 170.082L196.167 175.35C196.255 175.301 196.325 175.284 196.422 175.284V169.284ZM193.242 170.111C192.192 170.711 191.411 171.581 190.868 172.583L196.144 175.441C196.188 175.359 196.22 175.324 196.227 175.316C196.233 175.309 196.229 175.315 196.219 175.321L193.242 170.111ZM190.846 172.624C190.265 173.738 190.074 174.966 190.074 176.136H196.074C196.074 175.578 196.171 175.39 196.166 175.4L190.846 172.624ZM190.074 176.136C190.074 177.314 190.268 178.528 190.823 179.638L196.189 176.954C196.168 176.912 196.074 176.686 196.074 176.136H190.074ZM190.868 179.725C191.411 180.727 192.192 181.597 193.242 182.197L196.219 176.987C196.229 176.993 196.233 176.999 196.227 176.992C196.22 176.984 196.188 176.949 196.144 176.867L190.868 179.725ZM193.294 182.226C194.261 182.753 195.319 183.024 196.422 183.024V177.024C196.325 177.024 196.255 177.007 196.167 176.958L193.294 182.226ZM196.422 183.024C197.749 183.024 198.989 182.622 200.064 181.86L196.596 176.964C196.544 177.001 196.515 177.011 196.505 177.014C196.495 177.017 196.472 177.024 196.422 177.024V183.024ZM200.017 181.893C201.22 181.075 202.028 179.893 202.581 178.657L197.104 176.207C196.976 176.493 196.86 176.677 196.774 176.79C196.732 176.846 196.698 176.881 196.676 176.903C196.665 176.913 196.657 176.92 196.652 176.925C196.646 176.929 196.643 176.931 196.643 176.931L200.017 181.893ZM198.519 180.124L204.819 183.22L207.465 177.836L201.165 174.74L198.519 180.124ZM203.315 179.524C202.906 180.676 202.191 181.561 201.06 182.246L204.168 187.378C206.445 185.999 208.082 184.028 208.969 181.532L203.315 179.524ZM201.06 182.246C199.913 182.941 198.423 183.36 196.458 183.36V189.36C199.294 189.36 201.908 188.747 204.168 187.378L201.06 182.246ZM211.983 185.424L210.6 188.086L210.631 188.102L210.661 188.117L211.983 185.424ZM209.031 182.436L206.376 183.833L206.381 183.843L206.386 183.853L209.031 182.436ZM207.951 166.308V163.308H204.951V166.308H207.951ZM216.087 166.308H219.087V163.308H216.087V166.308ZM219.975 179.16L221.496 181.746L221.517 181.733L221.539 181.72L219.975 179.16ZM221.019 177.9L223.746 179.15L223.755 179.129L223.765 179.108L221.019 177.9ZM221.415 166.308V163.308H218.415V166.308H221.415ZM229.551 166.308H232.551V163.308H229.551V166.308ZM229.551 186V189H232.551V186H229.551ZM221.811 186H218.811V189H221.811V186ZM221.811 180.312L223.932 178.191L218.811 173.069V180.312H221.811ZM223.359 181.86L226.091 183.098L226.948 181.207L225.48 179.739L223.359 181.86ZM220.371 185.28L221.848 187.891L221.856 187.886L221.864 187.882L220.371 185.28ZM216.231 183.36C215.082 183.36 214.125 183.133 213.304 182.731L210.661 188.117C212.385 188.963 214.26 189.36 216.231 189.36V183.36ZM213.365 182.762C212.699 182.416 212.135 181.877 211.675 181.019L206.386 183.853C207.366 185.683 208.77 187.136 210.6 188.086L213.365 182.762ZM211.685 181.039C211.262 180.234 210.951 179.005 210.951 177.18H204.951C204.951 179.627 205.359 181.902 206.376 183.833L211.685 181.039ZM210.951 177.18V166.308H204.951V177.18H210.951ZM207.951 169.308H216.087V163.308H207.951V169.308ZM213.087 166.308V175.776H219.087V166.308H213.087ZM213.087 175.776C213.087 177.301 213.297 179.198 214.458 180.603L219.084 176.781C219.242 176.974 219.226 177.067 219.178 176.864C219.133 176.671 219.087 176.324 219.087 175.776H213.087ZM214.458 180.603C215.549 181.923 217.063 182.52 218.643 182.52V176.52C218.598 176.52 218.667 176.513 218.794 176.569C218.929 176.629 219.03 176.716 219.084 176.781L214.458 180.603ZM218.643 182.52C219.65 182.52 220.62 182.261 221.496 181.746L218.454 176.574C218.474 176.562 218.509 176.546 218.553 176.534C218.597 176.522 218.63 176.52 218.643 176.52V182.52ZM221.539 181.72C222.595 181.074 223.296 180.132 223.746 179.15L218.291 176.65C218.252 176.737 218.232 176.755 218.25 176.733C218.259 176.722 218.277 176.702 218.305 176.677C218.333 176.652 218.368 176.626 218.41 176.6L221.539 181.72ZM223.765 179.108C224.255 177.993 224.415 176.759 224.415 175.56H218.415C218.415 176.281 218.31 176.607 218.273 176.692L223.765 179.108ZM224.415 175.56V166.308H218.415V175.56H224.415ZM221.415 169.308H229.551V163.308H221.415V169.308ZM226.551 166.308V186H232.551V166.308H226.551ZM229.551 183H221.811V189H229.551V183ZM224.811 186V180.312H218.811V186H224.811ZM219.689 182.433L221.237 183.981L225.48 179.739L223.932 178.191L219.689 182.433ZM220.626 180.622C220.155 181.661 219.558 182.287 218.877 182.678L221.864 187.882C223.775 186.785 225.17 185.131 226.091 183.098L220.626 180.622ZM218.893 182.669C218.08 183.129 217.21 183.36 216.231 183.36V189.36C218.227 189.36 220.117 188.871 221.848 187.891L218.893 182.669ZM239.963 182.76L236.964 182.704L236.818 190.473L242.147 184.817L239.963 182.76ZM240.143 173.184L238.011 171.074L237.166 171.927L237.144 173.128L240.143 173.184ZM246.947 166.308V163.308H245.695L244.815 164.198L246.947 166.308ZM256.559 166.308L258.73 168.379L263.569 163.308H256.559V166.308ZM247.559 175.74L249.441 178.077L249.594 177.953L249.73 177.811L247.559 175.74ZM243.491 179.016L241.61 176.679L241.449 176.809L241.308 176.959L243.491 179.016ZM233.159 186H230.159V189H233.159V186ZM233.159 159.288V156.288H230.159V159.288H233.159ZM241.295 159.288H244.295V156.288H241.295V159.288ZM241.295 186V189H244.295V186H241.295ZM247.379 186L245.025 187.859L245.926 189H247.379V186ZM241.979 179.16L239.651 177.268L238.136 179.133L239.625 181.019L241.979 179.16ZM246.983 173.004L249.341 171.149L247.022 168.201L244.655 171.112L246.983 173.004ZM257.207 186V189H263.385L259.565 184.145L257.207 186ZM242.963 182.816L243.143 173.24L237.144 173.128L236.964 182.704L242.963 182.816ZM242.276 175.294L249.08 168.418L244.815 164.198L238.011 171.074L242.276 175.294ZM246.947 169.308H256.559V163.308H246.947V169.308ZM254.389 164.237L245.389 173.669L249.73 177.811L258.73 168.379L254.389 164.237ZM245.678 173.403L241.61 176.679L245.373 181.353L249.441 178.077L245.678 173.403ZM241.308 176.959L237.78 180.703L242.147 184.817L245.675 181.073L241.308 176.959ZM236.159 186V159.288H230.159V186H236.159ZM233.159 162.288H241.295V156.288H233.159V162.288ZM238.295 159.288V186H244.295V159.288H238.295ZM241.295 183H233.159V189H241.295V183ZM249.734 184.141L244.334 177.301L239.625 181.019L245.025 187.859L249.734 184.141ZM244.307 181.052L249.311 174.896L244.655 171.112L239.651 177.268L244.307 181.052ZM244.626 174.859L254.85 187.855L259.565 184.145L249.341 171.149L244.626 174.859ZM257.207 183H247.379V189H257.207V183Z" fill="#9D7149" mask="url(#path-1-outside-1_169_16)"/>
</g>
<g filter="url(#filter1_d_169_16)">
<path fill-rule="evenodd" clip-rule="evenodd" d="M108.232 129.04C108.516 130.482 108.021 131.967 106.928 132.951C105.835 133.939 104.304 134.281 102.893 133.855C68.9431 123.263 42.7364 95.0838 46.33 65.2363C51.334 23.6523 80.1354 0 124.341 0C168.546 0 198.213 30.0604 203.544 71.7885C207.745 104.653 182.375 129.758 149.232 136.466C147.642 136.775 146.004 136.239 144.906 135.051C143.807 133.863 143.405 132.193 143.841 130.637C148.6 113.597 155.399 89.3801 157.325 82.529C157.655 81.3523 158.433 80.3489 159.491 79.7331C162.995 77.655 169.783 78.153 171.776 64.4279C172.981 56.1269 175.158 43.1582 172.166 35.1512L167.921 57.2813L164.994 56.658L169.101 30.4386C168.195 29.1852 166.95 29.6742 166.95 29.6742L160.744 55.8492L157.734 55.3695L162.854 29.007L161.159 28.5431C160.558 28.3481 153.29 54.5631 153.29 54.5631L150.454 54.1017L156.712 31.0663C150.569 36.4155 147.786 46.9194 144.642 57.9758C141.34 69.5757 145.825 72.4949 148.729 76.216C149.91 77.6797 150.219 79.6608 149.538 81.4147C149.538 81.4147 132.835 124.355 128.49 135.525C127.871 137.115 126.284 138.117 124.579 137.989H124.578C124.436 137.978 124.294 137.965 124.152 137.957C123.4 137.897 122.763 137.38 122.552 136.659C118.232 121.922 108.22 87.7614 105.823 79.5737C105.492 78.448 105.597 77.2357 106.117 76.1818C107.824 72.6374 111.522 63.826 110.512 55.7962C109.062 44.2656 101.456 28.9797 86.5934 34.528C73.0813 39.5718 73.9297 55.467 81.3293 66.8283C85.4015 73.0815 91.577 77.3124 95.7539 78.8807C97.4983 79.5089 98.7851 81.0028 99.142 82.8166C99.143 82.8161 105.444 114.86 108.232 129.04Z" fill="#9D7149"/>
</g>
<defs>
<filter id="filter0_d_169_16" x="0.052002" y="156.444" width="261.155" height="37.916" filterUnits="userSpaceOnUse" color-interpolation-filters="sRGB">
<feFlood flood-opacity="0" result="BackgroundImageFix"/>
<feColorMatrix in="SourceAlpha" type="matrix" values="0 0 0 0 0 0 0 0 0 0 0 0 0 0 0 0 0 0 127 0" result="hardAlpha"/>
<feOffset dy="4"/>
<feGaussianBlur stdDeviation="2"/>
<feComposite in2="hardAlpha" operator="out"/>
<feColorMatrix type="matrix" values="0 0 0 0 0 0 0 0 0 0 0 0 0 0 0 0 0 0 0.25 0"/>
<feBlend mode="normal" in2="BackgroundImageFix" result="effect1_dropShadow_169_16"/>
<feBlend mode="normal" in="SourceGraphic" in2="effect1_dropShadow_169_16" result="shape"/>
</filter>
<filter id="filter1_d_169_16" x="42" y="0" width="166" height="146" filterUnits="userSpaceOnUse" color-interpolation-filters="sRGB">
<feFlood flood-opacity="0" result="BackgroundImageFix"/>
<feColorMatrix in="SourceAlpha" type="matrix" values="0 0 0 0 0 0 0 0 0 0 0 0 0 0 0 0 0 0 127 0" result="hardAlpha"/>
<feOffset dy="4"/>
<feGaussianBlur stdDeviation="2"/>
<feComposite in2="hardAlpha" operator="out"/>
<feColorMatrix type="matrix" values="0 0 0 0 0 0 0 0 0 0 0 0 0 0 0 0 0 0 0.25 0"/>
<feBlend mode="normal" in2="BackgroundImageFix" result="effect1_dropShadow_169_16"/>
<feBlend mode="normal" in="SourceGraphic" in2="effect1_dropShadow_169_16" result="shape"/>
</filter>
</defs>
</svg>
